<svg width="41" height="41" viewBox="0 0 41 41" fill="none" xmlns="http://www.w3.org/2000/svg">
<path d="M20.3745 40.1299C16.4061 40.1299 12.5267 38.9531 9.22705 36.7484C5.92738 34.5436 3.3556 31.4099 1.83693 27.7435C0.318265 24.0771 -0.0790892 20.0427 0.695122 16.1505C1.46933 12.2583 3.38034 8.68304 6.18647 5.87691C8.99261 3.07077 12.5678 1.15976 16.4601 0.38555C20.3523 -0.388661 24.3867 0.00869926 28.0531 1.52737C31.7195 3.04604 34.8532 5.61781 37.0579 8.91748C39.2627 12.2171 40.4395 16.0965 40.4395 20.065C40.4332 25.3846 38.3172 30.4845 34.5556 34.2461C30.7941 38.0076 25.6942 40.1236 20.3745 40.1299Z" fill="#274696"/>
<path d="M37.4331 20.0681C37.4331 10.6452 29.7943 3.00635 20.3713 3.00635C10.9484 3.00635 3.30957 10.6452 3.30957 20.0681C3.30957 29.4911 10.9484 37.1299 20.3713 37.1299C29.7943 37.1299 37.4331 29.4911 37.4331 20.0681Z" fill="#274696"/>
<path d="M19.6042 20.4109C19.3868 20.1275 19.1226 19.8835 18.8229 19.6892C18.7303 19.6287 18.6347 19.573 18.5366 19.5222C18.7926 19.3305 19.0161 19.0989 19.1986 18.8363C19.5191 18.3503 19.6835 17.778 19.6698 17.196C19.6755 16.7155 19.565 16.2408 19.3477 15.8122C19.1403 15.4043 18.84 15.0509 18.4709 14.7803C18.0654 14.489 17.6108 14.2729 17.1289 14.1421C16.5727 13.9933 15.9988 13.921 15.423 13.9274H10.9854V25.9938H15.6199C16.8217 26.0727 18.0157 25.7495 19.0137 25.0753C19.4153 24.7422 19.7327 24.319 19.9399 23.8402C20.1472 23.3614 20.2386 22.8404 20.2066 22.3196C20.2062 21.9757 20.1539 21.6339 20.0516 21.3056C19.958 20.9827 19.8064 20.6795 19.6042 20.4109ZM17.4331 17.3272C17.456 17.5184 17.4291 17.7123 17.3549 17.89C17.2807 18.0677 17.1617 18.2231 17.0096 18.3412C16.5104 18.6014 15.9486 18.717 15.3872 18.6752H13.2459V16.0389H15.2441C15.6221 16.0317 15.9999 16.0636 16.3714 16.1343C16.6036 16.177 16.8259 16.2619 17.0275 16.3848C17.1611 16.4725 17.2666 16.5967 17.3317 16.7427C17.4027 16.9292 17.4371 17.1277 17.4331 17.3272ZM13.2579 20.7569H15.4171C15.8571 20.7509 16.2967 20.7889 16.7293 20.8702C16.994 20.913 17.2464 21.0127 17.4689 21.1625C17.625 21.2684 17.7439 21.4207 17.8089 21.5979C17.8908 21.8356 17.9291 22.0861 17.9222 22.3375C17.9222 23.0055 17.6836 23.9002 15.6258 23.9002H13.24L13.2579 20.7569Z" fill="#FDFAEB"/>
<path d="M27.6618 13.927H22.9199V16.0385H27.6618V13.927Z" fill="#FDFAEB"/>
<path d="M27.2271 23.0117V23.1846C27.2255 23.3393 27.18 23.4903 27.0959 23.62C27.0035 23.7652 26.8816 23.8891 26.738 23.9839C26.5746 24.0906 26.3955 24.1711 26.2072 24.2225C26.0124 24.2741 25.8122 24.3022 25.6107 24.306C25.3371 24.3096 25.0654 24.2589 24.8114 24.1569C24.583 24.0629 24.379 23.9181 24.215 23.7334C24.0161 23.515 23.8621 23.2596 23.7617 22.9818C23.6741 22.7507 23.6121 22.5107 23.5768 22.2661H29.6547V21.5384C29.6649 20.8805 29.5661 20.2255 29.3625 19.5999C29.188 19.0506 28.8994 18.5445 28.5155 18.1147C28.1384 17.7069 27.6761 17.3872 27.1615 17.1783C26.6085 16.9627 26.0193 16.8554 25.4258 16.8621C24.8408 16.855 24.2605 16.9666 23.7199 17.1902C23.2058 17.4027 22.7438 17.7243 22.366 18.1326C21.9779 18.5634 21.6816 19.0687 21.4951 19.6178C21.2892 20.2369 21.1884 20.886 21.1969 21.5384C21.1872 22.2001 21.2942 22.8583 21.513 23.4829C21.7047 24.0361 22.0117 24.5424 22.4137 24.968C22.8135 25.3792 23.3007 25.6952 23.8392 25.8926C24.4102 26.1104 25.0175 26.2177 25.6286 26.2087C26.1044 26.2109 26.5782 26.1466 27.0363 26.0178C27.4653 25.8893 27.8689 25.6875 28.2292 25.4214C28.5888 25.1647 28.8919 24.8369 29.1197 24.4583C29.3474 24.0797 29.495 23.6584 29.5533 23.2204L29.5891 22.9818L27.2271 23.0117ZM23.7557 19.8683C23.862 19.6365 24.0073 19.4247 24.1852 19.242C24.3399 19.0857 24.5273 18.9655 24.7339 18.8901C24.9548 18.8057 25.1894 18.7633 25.4258 18.7649C25.6623 18.7621 25.8972 18.8046 26.1177 18.8901C26.3253 18.9698 26.5142 19.0917 26.6724 19.248C26.8474 19.4205 26.9907 19.6224 27.0959 19.8444C27.1667 19.9999 27.2226 20.1616 27.2629 20.3276H23.5827C23.6288 20.1684 23.6866 20.0129 23.7557 19.8623V19.8683Z" fill="#FDFAEB"/>
</svg>
