<svg width="41" height="41" viewBox="0 0 41 41" fill="none" xmlns="http://www.w3.org/2000/svg">
<path d="M20.2447 40.1299C16.2762 40.1299 12.3968 38.9531 9.09716 36.7484C5.79749 34.5436 3.22572 31.4099 1.70705 27.7435C0.18838 24.0771 -0.208971 20.0427 0.56524 16.1505C1.33945 12.2583 3.25045 8.68304 6.05659 5.87691C8.86272 3.07077 12.438 1.15976 16.3302 0.38555C20.2224 -0.388661 24.2568 0.00869926 27.9232 1.52737C31.5896 3.04604 34.7233 5.61781 36.9281 8.91748C39.1328 12.2171 40.3096 16.0965 40.3096 20.065C40.3049 25.3851 38.1894 30.4859 34.4275 34.2478C30.6656 38.0097 25.5648 40.1252 20.2447 40.1299Z" fill="#E71F73"/>
<path d="M37.3032 20.0686C37.3032 10.6457 29.6644 3.00684 20.2415 3.00684C10.8185 3.00684 3.17969 10.6457 3.17969 20.0686C3.17969 29.4916 10.8185 37.1304 20.2415 37.1304C29.6644 37.1304 37.3032 29.4916 37.3032 20.0686Z" fill="#E71F73"/>
<path d="M28.9051 22.242C29.0847 21.5301 29.1768 20.799 29.1794 20.0649C29.1816 17.9781 28.4488 15.9572 27.1097 14.3568C26.9785 14.2017 26.8413 14.0526 26.6982 13.9035L26.3522 13.5635C25.0702 12.3515 23.4563 11.5488 21.7162 11.2577C19.9762 10.9666 18.1888 11.2004 16.5822 11.9292C16.3973 12.0067 16.2183 12.0962 16.0394 12.1916C14.922 12.791 13.9448 13.6211 13.1726 14.6267C12.4003 15.6324 11.8506 16.7908 11.56 18.025C11.5242 18.1741 11.4884 18.3292 11.4645 18.4783C11.4407 18.6274 11.387 18.8958 11.3631 19.1106C11.3631 19.4267 11.3154 19.7428 11.3154 20.0649C11.314 22.0802 11.9975 24.0362 13.2539 25.612C14.4374 27.1102 16.0713 28.1881 17.9144 28.6865C19.7575 29.1849 21.712 29.0772 23.4892 28.3796C24.814 27.8604 25.9959 27.0328 26.9368 25.9654C27.8777 24.8979 28.5504 23.6215 28.8991 22.242H28.9051ZM28.0462 20.6793C26.0625 19.9838 23.9373 19.7911 21.8609 20.1186C21.6282 19.4804 21.3718 18.8541 21.0974 18.2338C22.9989 17.498 24.7586 16.4385 26.2985 15.1023C27.4527 16.4988 28.0853 18.2532 28.0879 20.0649C28.076 20.2737 28.0581 20.4765 28.0462 20.6793ZM25.5291 14.3091C24.0775 15.5584 22.4208 16.5472 20.6322 17.2317C19.8341 15.6132 18.8792 14.0769 17.7811 12.6449C18.5746 12.3762 19.4067 12.2392 20.2444 12.2393C22.2043 12.2366 24.0924 12.9761 25.5291 14.3091ZM16.7432 13.0744C17.8406 14.4803 18.7937 15.993 19.5883 17.5896C17.345 18.2803 14.9799 18.4837 12.6515 18.186C12.9265 17.0902 13.4343 16.0664 14.1403 15.1843C14.8464 14.3023 15.7341 13.5826 16.7432 13.0744ZM12.4189 20.0649C12.4178 19.8039 12.4317 19.543 12.4606 19.2835C13.2026 19.3765 13.9496 19.4243 14.6974 19.4267C16.5184 19.4297 18.329 19.152 20.0655 18.6036C20.316 19.1702 20.5546 19.7488 20.7693 20.3393C18.0815 21.0096 15.6845 22.5357 13.9399 24.6875C12.95 23.3498 12.4167 21.729 12.4189 20.0649ZM14.6735 25.5583C16.2922 23.4757 18.5695 22.0038 21.1332 21.3831C21.7254 23.2175 22.1252 25.1085 22.3261 27.0256C22.3261 27.2105 22.3261 27.4014 22.3679 27.5863C21.0245 27.9669 19.6032 27.9778 18.2542 27.6177C16.9051 27.2576 15.6783 26.5399 14.7033 25.5404L14.6735 25.5583ZM23.4176 27.2224C23.4176 27.127 23.4176 27.0316 23.4176 26.9361C23.2162 24.9859 22.8165 23.0613 22.2247 21.1922C22.7601 21.1143 23.3001 21.0724 23.8411 21.067C25.2187 21.0692 26.5845 21.3198 27.8732 21.8066C27.6017 22.9931 27.0578 24.1002 26.2844 25.0402C25.5111 25.9802 24.5296 26.7273 23.4176 27.2224Z" fill="#FFFEFC"/>
</svg>
