<svg width="41" height="41" viewBox="0 0 41 41" fill="none" xmlns="http://www.w3.org/2000/svg">
<path d="M20.8159 40.1299C16.8475 40.1299 12.9681 38.9531 9.66845 36.7484C6.36879 34.5436 3.79701 31.4099 2.27834 27.7435C0.759671 24.0771 0.362317 20.0427 1.13653 16.1505C1.91074 12.2583 3.82174 8.68304 6.62788 5.8769C9.43401 3.07077 13.0092 1.15976 16.9015 0.385551C20.7937 -0.38866 24.8281 0.00869599 28.4945 1.52737C32.1609 3.04604 35.2946 5.61781 37.4994 8.91748C39.7041 12.2171 40.8809 16.0965 40.8809 20.065C40.8746 25.3846 38.7586 30.4845 34.997 34.2461C31.2355 38.0076 26.1356 40.1236 20.8159 40.1299Z" fill="#0080C5"/>
<path d="M37.8755 20.0615C37.8755 10.6386 30.2367 2.99976 20.8137 2.99976C11.3908 2.99976 3.75195 10.6386 3.75195 20.0615C3.75195 29.4845 11.3908 37.1233 20.8137 37.1233C30.2367 37.1233 37.8755 29.4845 37.8755 20.0615Z" fill="#0080C5"/>
<path d="M21.4786 15.0065C21.4786 13.6884 22.2659 13.0919 23.3097 13.0919C23.6802 13.0914 24.0458 13.1771 24.3774 13.3424L25.4152 11.0401C24.6803 10.6448 23.8634 10.4263 23.0294 10.4019C20.56 10.4019 18.1145 11.9825 18.1145 15.3107V16.0086H16.2178V18.7464H18.0966V29.7511H21.4786V18.7344H24.4609V15.9967H21.4786V15.0065Z" fill="#FFFEFC"/>
</svg>
