<svg width="41" height="41" viewBox="0 0 41 41" fill="none" xmlns="http://www.w3.org/2000/svg">
<path d="M20.3355 40.1299C16.367 40.1299 12.4876 38.9531 9.18798 36.7484C5.88831 34.5436 3.31654 31.4099 1.79787 27.7435C0.2792 24.0771 -0.118151 20.0427 0.65606 16.1505C1.43027 12.2583 3.34127 8.68304 6.14741 5.8769C8.95354 3.07077 12.5288 1.15976 16.421 0.385551C20.3132 -0.38866 24.3476 0.00869599 28.014 1.52737C31.6804 3.04604 34.8141 5.61781 37.0189 8.91748C39.2236 12.2171 40.4004 16.0965 40.4004 20.065C40.3957 25.3851 38.2802 30.4859 34.5183 34.2478C30.7564 38.0097 25.6556 40.1252 20.3355 40.1299Z" fill="#5C6BC0"/>
<path d="M37.9214 20.0613C37.9214 10.6383 30.2826 2.99951 20.8596 2.99951C11.4367 2.99951 3.79785 10.6383 3.79785 20.0613C3.79785 29.4842 11.4367 37.1231 20.8596 37.1231C30.2826 37.1231 37.9214 29.4842 37.9214 20.0613Z" fill="#5C6BC0"/>
<path d="M28.211 14.0127C28.1314 13.9071 28.0464 13.8057 27.9563 13.7089C28.0469 13.4674 28.1158 13.2181 28.162 12.9643C28.2985 12.0356 28.18 11.0873 27.8191 10.2207C27.8191 10.2207 26.7217 9.8778 24.2035 11.5729C23.1344 11.2777 22.0301 11.1294 20.9211 11.132C19.8088 11.13 18.7014 11.2784 17.6288 11.5729C15.1107 9.8582 14.0132 10.2207 14.0132 10.2207C13.6567 11.0781 13.5382 12.0158 13.6703 12.9349C13.7168 13.1993 13.789 13.4586 13.8859 13.7089C13.7977 13.8069 13.7095 13.9147 13.6311 14.0127C12.8999 14.9298 12.5118 16.0734 12.5337 17.2461C12.5314 17.5243 12.5445 17.8023 12.5729 18.079C12.8864 22.4197 15.7769 23.4289 18.5303 23.7424C18.1406 24.1048 17.8763 24.5818 17.7758 25.1044C17.6847 25.4529 17.6419 25.8123 17.6484 26.1724V27.456C16.552 27.554 15.4271 27.3943 15.0783 26.4164C14.7039 25.4804 14.0829 24.6634 13.2813 24.0521C13.2227 24.0203 13.167 23.9836 13.1147 23.9423C13.0443 23.7573 12.9196 23.598 12.757 23.4852C12.5944 23.3724 12.4014 23.3114 12.2035 23.3103H12.1986C11.9396 23.3103 11.6911 23.4129 11.5075 23.5956C11.3239 23.7783 11.2201 24.0262 11.2188 24.2853C11.2158 25.0809 12.0124 25.5953 12.3387 25.7697C12.7199 26.1538 13.0266 26.6053 13.2431 27.1013C13.5998 28.1037 14.6433 29.6273 17.619 29.4294L17.621 29.5254L17.6249 29.788C17.6249 30.0479 17.7281 30.2971 17.9119 30.4808C18.0956 30.6646 18.3449 30.7678 18.6047 30.7678H23.2237C23.4835 30.7678 23.7328 30.6646 23.9165 30.4808C24.1003 30.2971 24.2035 30.0479 24.2035 29.788C24.2035 29.788 24.2113 26.6917 24.2113 26.1724C24.2179 25.8123 24.175 25.4529 24.084 25.1044L24.082 25.0985L24.0859 25.1044C24.0771 25.0701 24.0644 25.0427 24.0546 25.0093C23.9454 24.5239 23.6928 24.0825 23.3295 23.7424L23.3412 23.763L23.3216 23.7434C26.075 23.4299 28.9459 22.401 29.2594 18.08C29.2879 17.8033 29.3009 17.5252 29.2986 17.2471C29.316 16.0767 28.9322 14.9356 28.211 14.0137V14.0127Z" fill="white"/>
</svg>
