<svg width="41" height="41" viewBox="0 0 41 41" fill="none" xmlns="http://www.w3.org/2000/svg">
<path d="M20.0757 40.1299C16.1072 40.1299 12.2279 38.9531 8.92821 36.7484C5.62855 34.5436 3.05677 31.4099 1.5381 27.7435C0.0194348 24.0771 -0.377917 20.0427 0.396294 16.1505C1.17051 12.2583 3.08151 8.68303 5.88764 5.8769C8.69378 3.07076 12.269 1.15976 16.1612 0.385552C20.0535 -0.388659 24.0879 0.00869257 27.7542 1.52736C31.4206 3.04603 34.5544 5.61781 36.7591 8.91747C38.9639 12.2171 40.1407 16.0965 40.1407 20.065C40.1343 25.3846 38.0183 30.4845 34.2568 34.2461C30.4953 38.0076 25.3953 40.1236 20.0757 40.1299Z" fill="#AB357C"/>
<path d="M37.1343 20.0615C37.1343 10.6386 29.4955 2.99976 20.0725 2.99976C10.6496 2.99976 3.01074 10.6386 3.01074 20.0615C3.01074 29.4845 10.6496 37.1233 20.0725 37.1233C29.4955 37.1233 37.1343 29.4845 37.1343 20.0615Z" fill="#AB357C"/>
<path d="M25.3305 10.8555H14.8209C13.8427 10.857 12.9051 11.2467 12.214 11.939C11.5229 12.6312 11.1348 13.5694 11.1348 14.5476V25.5582C11.1348 26.5364 11.5229 27.4746 12.214 28.1668C12.9051 28.8591 13.8427 29.2488 14.8209 29.2503H25.3305C25.8151 29.2503 26.2949 29.1548 26.7425 28.9692C27.1901 28.7836 27.5968 28.5115 27.9391 28.1686C28.2815 27.8257 28.5529 27.4186 28.7378 26.9707C28.9227 26.5228 29.0175 26.0428 29.0167 25.5582V14.5595C29.0182 14.0741 28.9241 13.5932 28.7396 13.1443C28.5552 12.6954 28.284 12.2872 27.9416 11.9432C27.5992 11.5992 27.1924 11.326 26.7444 11.1394C26.2963 10.9527 25.8159 10.8563 25.3305 10.8555ZM27.1199 25.0632C27.1199 25.3645 27.0605 25.6628 26.945 25.9411C26.8295 26.2193 26.6603 26.4721 26.447 26.6848C26.2337 26.8976 25.9804 27.0662 25.7019 27.181C25.4233 27.2957 25.1248 27.3544 24.8235 27.3536H15.3219C14.7145 27.3536 14.1319 27.1123 13.7023 26.6827C13.2728 26.2532 13.0315 25.6706 13.0315 25.0632V15.0307C13.0315 14.4232 13.2728 13.8407 13.7023 13.4111C14.1319 12.9816 14.7145 12.7403 15.3219 12.7403H24.8295C25.1333 12.7355 25.435 12.7913 25.717 12.9043C25.999 13.0172 26.2558 13.1852 26.4723 13.3983C26.6887 13.6115 26.8607 13.8656 26.978 14.1459C27.0953 14.4261 27.1557 14.7269 27.1557 15.0307V25.0512L27.1199 25.0632Z" fill="#FFFEFC"/>
<path d="M20.075 14.5959C18.9933 14.5959 17.9358 14.9167 17.0363 15.5177C16.1368 16.1187 15.4358 16.973 15.0218 17.9724C14.6078 18.9718 14.4995 20.0716 14.7106 21.1326C14.9216 22.1935 15.4425 23.1681 16.2075 23.9331C16.9724 24.698 17.947 25.2189 19.008 25.43C20.069 25.641 21.1687 25.5327 22.1681 25.1187C23.1676 24.7047 24.0218 24.0037 24.6228 23.1042C25.2238 22.2048 25.5446 21.1473 25.5446 20.0655C25.543 18.6154 24.9662 17.2251 23.9408 16.1997C22.9154 15.1743 21.5252 14.5975 20.075 14.5959ZM20.075 23.6383C19.3672 23.6383 18.6753 23.4284 18.0868 23.0352C17.4982 22.6419 17.0395 22.083 16.7687 21.4291C16.4978 20.7751 16.4269 20.0556 16.565 19.3614C16.7031 18.6671 17.044 18.0295 17.5445 17.529C18.045 17.0285 18.6826 16.6876 19.3768 16.5495C20.0711 16.4114 20.7906 16.4823 21.4445 16.7532C22.0985 17.0241 22.6574 17.4828 23.0507 18.0713C23.4439 18.6598 23.6538 19.3517 23.6538 20.0595C23.6538 21.0087 23.2767 21.919 22.6056 22.5901C21.9345 23.2613 21.0242 23.6383 20.075 23.6383Z" fill="#FFFEFC"/>
<path d="M24.7995 14.3271H24.6802C24.2652 14.3271 23.9287 14.6636 23.9287 15.0787V15.198C23.9287 15.613 24.2652 15.9495 24.6802 15.9495H24.7995C25.2146 15.9495 25.5511 15.613 25.5511 15.198V15.0787C25.5511 14.6636 25.2146 14.3271 24.7995 14.3271Z" fill="#FFFEFC"/>
</svg>
