<svg width="41" height="41" viewBox="0 0 41 41" fill="none" xmlns="http://www.w3.org/2000/svg">
<path d="M20.4654 40.1299C16.4966 40.1299 12.617 38.953 9.31724 36.748C6.01745 34.5429 3.44568 31.4089 1.92718 27.7421C0.408689 24.0754 0.0116843 20.0407 0.786379 16.1483C1.56107 12.2559 3.47267 8.68069 6.2794 5.87479C9.08613 3.06889 12.6619 1.15836 16.5545 0.384825C20.4472 -0.388712 24.4817 0.00949022 28.148 1.52907C31.8143 3.04866 34.9476 5.62137 37.1517 8.92182C39.3557 12.2223 40.5315 16.1022 40.5303 20.0709C40.524 25.39 38.4078 30.4893 34.6461 34.2499C30.8844 38.0105 25.7844 40.1252 20.4654 40.1299Z" fill="#42A9E0"/>
<path d="M37.5249 20.0686C37.5249 10.6457 29.8861 3.00684 20.4631 3.00684C11.0402 3.00684 3.40137 10.6457 3.40137 20.0686C3.40137 29.4916 11.0402 37.1304 20.4631 37.1304C29.8861 37.1304 37.5249 29.4916 37.5249 20.0686Z" fill="#42A9E0"/>
<path d="M14.6563 16.2712V27.9321H12.1631V16.2712H14.6563Z" fill="white"/>
<path d="M14.6563 12.2092V14.7501H12.1631V12.2092H14.6563Z" fill="white"/>
<path d="M28.7749 20.6735V27.9324H26.2579V21.3713C26.2922 20.9935 26.2435 20.6128 26.1151 20.2558C25.9867 19.8988 25.7817 19.5742 25.5146 19.3049C25.2475 19.0355 24.9247 18.8278 24.5688 18.6964C24.2129 18.5649 23.8326 18.513 23.4545 18.5441C22.5952 18.5313 21.7656 18.858 21.1458 19.4532C20.526 20.0484 20.166 20.8642 20.1441 21.7233V27.9324H17.6211V16.2716H20.1441V18.5083C20.9732 16.886 22.4644 16.1821 24.4386 16.1821C27.1525 16.1821 28.7749 17.894 28.7749 20.6735Z" fill="white"/>
</svg>
