<svg width="41" height="41" viewBox="0 0 41 41" fill="none" xmlns="http://www.w3.org/2000/svg">
<path d="M20.1148 40.1299C16.1463 40.1299 12.2669 38.9531 8.96728 36.7484C5.66761 34.5436 3.09584 31.4099 1.57717 27.7435C0.0584973 24.0771 -0.338854 20.0427 0.435357 16.1505C1.20957 12.2583 3.12057 8.68304 5.9267 5.8769C8.73284 3.07077 12.3081 1.15976 16.2003 0.385551C20.0925 -0.38866 24.1269 0.00869599 27.7933 1.52737C31.4597 3.04604 34.5934 5.61781 36.7982 8.91748C39.0029 12.2171 40.1797 16.0965 40.1797 20.065C40.1734 25.3846 38.0574 30.4845 34.2959 34.2461C30.5343 38.0076 25.4344 40.1236 20.1148 40.1299Z" fill="#E2061F"/>
<path d="M37.1734 20.0613C37.1734 10.6383 29.5345 2.99951 20.1116 2.99951C10.6886 2.99951 3.0498 10.6383 3.0498 20.0613C3.0498 29.4842 10.6886 37.1231 20.1116 37.1231C29.5345 37.1231 37.1734 29.4842 37.1734 20.0613Z" fill="#E2061F"/>
<path d="M15.7302 30.6937C15.1337 30.5565 14.0959 28.8507 15.6645 24.6039C17.2332 20.357 16.7441 20.1125 16.5652 18.7884C16.3863 17.4642 16.6785 14.47 19.1061 14.7145C21.1639 14.9233 20.6032 17.4165 19.8756 19.0866C19.1479 20.7567 18.6826 21.884 19.804 23.0352C20.9253 24.1863 23.6094 23.2201 24.695 21.0788C25.7805 18.9375 26.2279 15.3587 24.188 13.3248C23.5944 12.7599 22.8913 12.3226 22.1222 12.0398C21.3531 11.7571 20.5343 11.6348 19.7161 11.6807C18.898 11.7265 18.0979 11.9394 17.3651 12.3063C16.6324 12.6732 15.9826 13.1862 15.4558 13.8139C12.9149 16.8379 14.0243 19.2238 14.8593 20.7925C15.6944 22.3612 14.1853 22.8085 12.9984 21.4545C11.8114 20.1006 10.2487 15.7583 13.3801 12.4539C16.5115 9.14954 21.7306 8.27871 25.4227 11.1835C26.7577 12.2026 27.7468 13.6078 28.2558 15.2084C28.7648 16.8089 28.769 18.5274 28.2678 20.1304C25.6791 28.4809 18.6886 25.3256 18.4262 24.2281C18.2592 25.0989 18.2651 26.1368 18.122 27.3177C17.9788 28.4987 17.0901 30.986 15.7302 30.6937Z" fill="#FFFFFE"/>
</svg>
