<svg width="42" height="41" viewBox="0 0 42 41" fill="none" xmlns="http://www.w3.org/2000/svg">
<path d="M20.9849 40.1299C17.0164 40.1299 13.1371 38.9531 9.83739 36.7484C6.53773 34.5436 3.96595 31.4099 2.44728 27.7435C0.928614 24.0771 0.531263 20.0427 1.30547 16.1505C2.07968 12.2583 3.99069 8.68303 6.79682 5.8769C9.60295 3.07076 13.1782 1.15976 17.0704 0.385552C20.9626 -0.388659 24.997 0.00869257 28.6634 1.52736C32.3298 3.04603 35.4635 5.61781 37.6683 8.91747C39.8731 12.2171 41.0498 16.0965 41.0498 20.065C41.0435 25.3846 38.9275 30.4845 35.166 34.2461C31.4045 38.0076 26.3045 40.1236 20.9849 40.1299Z" fill="#E9560C"/>
<path d="M38.0435 20.0615C38.0435 10.6386 30.4047 2.99976 20.9817 2.99976C11.5587 2.99976 3.91992 10.6386 3.91992 20.0615C3.91992 29.4845 11.5587 37.1233 20.9817 37.1233C30.4047 37.1233 38.0435 29.4845 38.0435 20.0615Z" fill="#E9560C"/>
<path d="M21.1999 27.2879C21.1999 27.6834 21.357 28.0627 21.6366 28.3423C21.9162 28.622 22.2955 28.7791 22.691 28.7791H28.6556C29.0511 28.7791 29.4304 28.622 29.71 28.3423C29.9897 28.0627 30.1468 27.6834 30.1468 27.2879V21.3233C30.1468 20.9278 29.9897 20.5486 29.71 20.2689C29.4304 19.9893 29.0511 19.8322 28.6556 19.8322H27.1645V25.7968H21.1999V27.2879ZM19.7087 10.8853C20.1042 10.8853 20.4835 11.0424 20.7631 11.322C21.0427 11.6016 21.1999 11.9809 21.1999 12.3764V13.8676H15.2352V19.8322H13.7441C13.3486 19.8322 12.9693 19.6751 12.6897 19.3954C12.41 19.1158 12.2529 18.7365 12.2529 18.341V12.3764C12.2529 11.9809 12.41 11.6016 12.6897 11.322C12.9693 11.0424 13.3486 10.8853 13.7441 10.8853H19.7087Z" fill="white"/>
</svg>
