<svg width="41" height="41" viewBox="0 0 41 41" fill="none" xmlns="http://www.w3.org/2000/svg">
<path d="M20.5952 40.1299C16.6268 40.1299 12.7474 38.9531 9.44775 36.7484C6.14808 34.5436 3.57631 31.4099 2.05764 27.7435C0.538966 24.0771 0.141615 20.0427 0.915826 16.1505C1.69004 12.2583 3.60103 8.68303 6.40717 5.8769C9.2133 3.07076 12.7885 1.15976 16.6808 0.385552C20.573 -0.388659 24.6074 0.00869257 28.2738 1.52736C31.9402 3.04603 35.0739 5.61781 37.2787 8.91747C39.4834 12.2171 40.6602 16.0965 40.6602 20.065C40.6539 25.3846 38.5379 30.4845 34.7763 34.2461C31.0148 38.0076 25.9149 40.1236 20.5952 40.1299Z" fill="#59AED6"/>
<path d="M37.6538 20.062C37.6538 10.6391 30.015 3.00024 20.592 3.00024C11.1691 3.00024 3.53027 10.6391 3.53027 20.062C3.53027 29.485 11.1691 37.1238 20.592 37.1238C30.015 37.1238 37.6538 29.485 37.6538 20.062Z" fill="#59AED6"/>
<path d="M29.7926 21.6155C30.0151 20.2836 29.945 18.9194 29.5873 17.6173C29.2295 16.3153 28.5927 15.1067 27.7209 14.0755C26.8492 13.0443 25.7635 12.2152 24.5392 11.6457C23.3149 11.0763 21.9813 10.7801 20.631 10.7778C20.1235 10.78 19.6169 10.8218 19.116 10.903C18.0527 10.1763 16.7687 9.84439 15.4865 9.96488C14.2042 10.0854 13.0045 10.6506 12.0953 11.5627C11.186 12.4748 10.6245 13.6763 10.508 14.9589C10.3915 16.2415 10.7274 17.5245 11.4574 18.5854C11.3833 19.0771 11.3454 19.5735 11.3441 20.0706C11.3441 22.5337 12.3225 24.8958 14.0642 26.6375C15.8058 28.3791 18.1679 29.3575 20.631 29.3575C21.1344 29.3573 21.637 29.3174 22.1341 29.2383C23.194 29.9429 24.4649 30.2593 25.7314 30.1341C26.998 30.0088 28.1823 29.4495 29.0837 28.551C29.985 27.6524 30.548 26.4699 30.6772 25.2037C30.8064 23.9375 30.4939 22.6656 29.7926 21.6035V21.6155ZM23.5894 25.1227C22.6534 25.7832 21.5319 26.1298 20.3864 26.1128C18.7867 26.0412 17.2548 25.446 16.0263 24.4188C15.7794 24.2148 15.6215 23.9228 15.5859 23.6045C15.5503 23.2862 15.6398 22.9665 15.8354 22.713C15.9345 22.5865 16.0582 22.4813 16.1989 22.4038C16.3397 22.3263 16.4946 22.278 16.6545 22.2618C16.8144 22.2457 16.9759 22.262 17.1293 22.3098C17.2827 22.3576 17.4249 22.4359 17.5473 22.54C18.3365 23.2076 19.3145 23.6122 20.3447 23.6971H20.3864C21.0225 23.7091 21.647 23.5259 22.1758 23.1722C22.328 23.084 22.4568 22.9604 22.5513 22.812C22.6457 22.6635 22.7031 22.4946 22.7186 22.3193C22.7229 22.2044 22.6894 22.0912 22.6232 21.9972C22.5298 21.8509 22.4056 21.7267 22.2593 21.6334C21.6259 21.2738 20.9329 21.0313 20.2135 20.9176H20.1419C19.3937 20.7872 18.6644 20.5649 17.9708 20.2555C17.2954 19.9594 16.7196 19.4748 16.3126 18.8598C16.0318 18.4003 15.8851 17.8714 15.8891 17.3329C15.9033 16.808 16.0414 16.2938 16.2923 15.8325C16.5432 15.3712 16.8996 14.9758 17.3326 14.6786C18.214 14.06 19.2679 13.7344 20.3447 13.7482C21.676 13.8033 22.9584 14.2655 24.0189 15.0723H24.0666C24.2006 15.1595 24.3157 15.2727 24.4051 15.4052C24.4944 15.5378 24.5563 15.6869 24.5869 15.8438C24.6175 16.0007 24.6162 16.1622 24.5832 16.3186C24.5502 16.475 24.4861 16.6232 24.3947 16.7543C24.2862 16.9212 24.1377 17.0583 23.9626 17.1531C23.7876 17.2479 23.5917 17.2974 23.3926 17.2971C23.1567 17.2964 22.9263 17.2259 22.7305 17.0943C22.0526 16.5362 21.22 16.199 20.3447 16.128C19.7818 16.1181 19.2296 16.2827 18.7641 16.5992C18.6372 16.6732 18.5295 16.776 18.4498 16.8993C18.37 17.0226 18.3203 17.163 18.3048 17.309C18.2956 17.3961 18.3144 17.4839 18.3585 17.5595C18.4488 17.6834 18.5622 17.7887 18.6925 17.8697C19.2576 18.1963 19.8785 18.4147 20.5236 18.5139H20.5952C21.3925 18.6531 22.1697 18.8894 22.9095 19.2177C23.6338 19.5317 24.2542 20.0446 24.6989 20.6969C24.9884 21.1711 25.1411 21.716 25.1402 22.2716C25.1336 22.8372 24.9888 23.3926 24.7185 23.8895C24.4483 24.3864 24.0607 24.8097 23.5894 25.1227Z" fill="#FFFFFE"/>
</svg>
