<svg width="41" height="41" viewBox="0 0 41 41" fill="none" xmlns="http://www.w3.org/2000/svg">
<path d="M20.855 40.1299C31.9366 40.1299 40.92 31.1465 40.92 20.065C40.92 8.98339 31.9366 0 20.855 0C9.77343 0 0.790039 8.98339 0.790039 20.065C0.790039 31.1465 9.77343 40.1299 20.855 40.1299Z" fill="#5CAFD4"/>
<path d="M20.8372 37.1115C11.4131 37.1115 3.77246 29.4708 3.77246 20.0467C3.77246 10.6226 11.4131 2.98193 20.8372 2.98193C30.2613 2.98193 37.902 10.6226 37.902 20.0467C37.902 29.4708 30.2613 37.1115 20.8372 37.1115Z" fill="#5CAFD5"/>
<path d="M28.3915 13.2805L13.4098 19.0577C12.3874 19.4684 12.3933 20.0387 13.2223 20.2931L17.0686 21.4929L25.968 15.878C26.3888 15.622 26.7733 15.7597 26.4573 16.0402L19.247 22.5475H19.2453L19.247 22.5483L18.9817 26.513C19.3704 26.513 19.5419 26.3347 19.7599 26.1243L21.6282 24.3076L25.5143 27.178C26.2308 27.5726 26.7454 27.3698 26.9237 26.5147L29.4747 14.4922C29.7358 13.4453 29.0751 12.9713 28.3915 13.2805Z" fill="white"/>
</svg>
