<svg width="42" height="41" viewBox="0 0 42 41" fill="none" xmlns="http://www.w3.org/2000/svg">
<path d="M20.9458 40.1299C16.9773 40.1299 13.098 38.9531 9.79833 36.7484C6.49866 34.5436 3.92689 31.4099 2.40822 27.7435C0.889552 24.0771 0.492201 20.0427 1.26641 16.1505C2.04062 12.2583 3.95162 8.68303 6.75776 5.8769C9.56389 3.07076 13.1391 1.15976 17.0313 0.385552C20.9236 -0.388659 24.958 0.00869257 28.6243 1.52736C32.2907 3.04603 35.4245 5.61781 37.6292 8.91747C39.834 12.2171 41.0108 16.0965 41.0108 20.065C41.0045 25.3846 38.8885 30.4845 35.1269 34.2461C31.3654 38.0076 26.2654 40.1236 20.9458 40.1299Z" fill="#429CC9"/>
<path d="M38.0054 20.0615C38.0054 10.6386 30.3666 2.99976 20.9436 2.99976C11.5207 2.99976 3.88184 10.6386 3.88184 20.0615C3.88184 29.4845 11.5207 37.1233 20.9436 37.1233C30.3666 37.1233 38.0054 29.4845 38.0054 20.0615Z" fill="#429CC9"/>
<path d="M30.8185 13.969C30.4547 14.1062 28.6653 14.4939 28.6653 14.4939C29.4059 13.9453 29.9548 13.1773 30.234 12.2989C29.4199 12.7963 28.5087 13.1136 27.5618 13.2294C26.7864 12.281 25.5696 11.7919 23.822 12.1796C21.0663 12.7761 20.6369 15.0069 20.6667 16.9513C18.4896 16.8917 14.5172 15.7584 12.4057 12.7761C12.4057 12.7761 10.676 15.651 13.6285 18.1442C12.9892 18.0894 12.3639 17.926 11.7794 17.6611C11.8053 18.5994 12.1325 19.5044 12.7125 20.2424C13.2926 20.9803 14.0947 21.512 15.0003 21.7588C14.4265 21.8381 13.8444 21.8381 13.2706 21.7588C13.572 22.5376 14.0876 23.2152 14.7578 23.7134C15.428 24.2116 16.2255 24.51 17.0581 24.5741C15.2727 25.7293 13.1772 26.3119 11.0518 26.2442C19.0324 30.8668 26.4166 25.8803 28.2418 19.8322C28.5991 18.6322 28.7226 17.3748 28.6056 16.1282C29.4086 15.4786 30.1494 14.7558 30.8185 13.969Z" fill="#FFFFFE"/>
<path d="M30.8185 13.969C30.4547 14.1062 28.6653 14.4939 28.6653 14.4939C29.4059 13.9453 29.9548 13.1773 30.234 12.2989C29.4199 12.7963 28.5087 13.1136 27.5618 13.2294C26.7864 12.281 25.5696 11.7919 23.822 12.1796C21.0663 12.7761 20.6369 15.0069 20.6667 16.9513C18.4896 16.8917 14.5172 15.7584 12.4057 12.7761C12.4057 12.7761 10.676 15.651 13.6285 18.1442C12.9892 18.0894 12.3639 17.926 11.7794 17.6611C11.8053 18.5994 12.1325 19.5044 12.7125 20.2424C13.2926 20.9803 14.0947 21.512 15.0003 21.7588C14.4265 21.8381 13.8444 21.8381 13.2706 21.7588C13.572 22.5376 14.0876 23.2152 14.7578 23.7134C15.428 24.2116 16.2255 24.51 17.0581 24.5741C15.2727 25.7293 13.1772 26.3119 11.0518 26.2442C19.0324 30.8668 26.4166 25.8803 28.2418 19.8322C28.5991 18.6322 28.7226 17.3748 28.6056 16.1282C29.4086 15.4786 30.1494 14.7558 30.8185 13.969Z" fill="#FFFFFE"/>
</svg>
