<svg width="41" height="41" viewBox="0 0 41 41" fill="none" xmlns="http://www.w3.org/2000/svg">
<path d="M20.7251 40.1299C16.7567 40.1299 12.8773 38.9531 9.57763 36.7484C6.27797 34.5436 3.70619 31.4099 2.18752 27.7435C0.66885 24.0771 0.271497 20.0427 1.04571 16.1505C1.81992 12.2583 3.73092 8.68303 6.53706 5.8769C9.34319 3.07076 12.9184 1.15976 16.8106 0.385552C20.7029 -0.388659 24.7373 0.00869257 28.4037 1.52736C32.07 3.04603 35.2038 5.61781 37.4085 8.91747C39.6133 12.2171 40.7901 16.0965 40.7901 20.065C40.7838 25.3846 38.6678 30.4845 34.9062 34.2461C31.1447 38.0076 26.0447 40.1236 20.7251 40.1299Z" fill="#429432"/>
<path d="M37.7837 20.0615C37.7837 10.6386 30.1449 2.99976 20.7219 2.99976C11.299 2.99976 3.66016 10.6386 3.66016 20.0615C3.66016 29.4845 11.299 37.1233 20.7219 37.1233C30.1449 37.1233 37.7837 29.4845 37.7837 20.0615Z" fill="#429432"/>
<path d="M20.7614 10.1814C19.0646 10.1802 17.3968 10.6213 15.9223 11.461C14.4478 12.3008 13.2177 13.5103 12.3531 14.9704C11.4885 16.4304 11.0193 18.0906 10.9918 19.7872C10.9643 21.4838 11.3794 23.1583 12.1962 24.6456C12.1962 24.6456 11.3314 27.9321 11.1465 28.6001C11.054 28.9216 10.9803 29.2483 10.9258 29.5783C10.9258 29.7215 10.9675 29.978 11.2359 29.9422C11.4684 29.8984 11.696 29.8325 11.9159 29.7453L15.7213 28.3138C17.0111 29.0891 18.4625 29.5559 19.9624 29.6776C21.4623 29.7993 22.9701 29.5726 24.3679 29.0153C25.7657 28.4581 27.0158 27.5853 28.0206 26.465C29.0254 25.3448 29.7577 24.0075 30.1602 22.5575C30.5628 21.1075 30.6248 19.5841 30.3413 18.1062C30.0578 16.6283 29.4366 15.236 28.5261 14.0378C27.6156 12.8397 26.4406 11.8682 25.0926 11.1992C23.7446 10.5303 22.2603 10.1819 20.7555 10.1814H20.7614ZM21.5607 28.1528C19.684 28.3357 17.8015 27.8682 16.2283 26.8286C16.1036 26.7487 15.9589 26.7053 15.8108 26.7034C15.7187 26.7038 15.6276 26.7221 15.5424 26.7571L13.0194 27.7114L13.7709 24.7291C13.7954 24.6283 13.7995 24.5237 13.7832 24.4213C13.7668 24.3189 13.7302 24.2208 13.6755 24.1326C12.768 22.5946 12.3841 20.8036 12.5816 19.0288C12.779 17.2539 13.547 15.5911 14.7703 14.2901C15.9936 12.9891 17.606 12.1202 19.3654 11.8139C21.1247 11.5076 22.9359 11.7806 24.5268 12.5917C26.1178 13.4028 27.4026 14.7083 28.1881 16.312C28.9737 17.9158 29.2176 19.7311 28.8832 21.4853C28.5488 23.2395 27.6542 24.8378 26.3338 26.0401C25.0134 27.2424 23.3385 27.9838 21.5607 28.1528Z" fill="white"/>
<path d="M19.6166 20.9179C19.6166 20.9179 21.239 22.3911 21.9428 22.3852C22.3186 22.3852 22.2708 21.9438 22.6168 21.5084C22.9627 21.0729 24.6507 21.735 25.1398 22.1048C25.2885 22.2076 25.4136 22.3409 25.5067 22.4958C25.5997 22.6507 25.6587 22.8237 25.6796 23.0032C25.7005 23.1828 25.6828 23.3647 25.6278 23.5369C25.5728 23.709 25.4816 23.8675 25.3605 24.0016C24.8654 24.598 23.2729 25.3198 20.7618 23.8107C19.9698 23.3483 19.2281 22.8046 18.5489 22.1883C17.9617 21.648 17.432 21.0483 16.9683 20.399C15.1789 18.0608 15.7754 16.3967 16.2883 15.848C16.4065 15.7115 16.5526 15.6021 16.7167 15.5271C16.8809 15.4521 17.0592 15.4133 17.2397 15.4133C17.4202 15.4133 17.5985 15.4521 17.7627 15.5271C17.9268 15.6021 18.0729 15.7115 18.191 15.848C18.6384 16.2893 19.5271 17.8342 19.0738 18.2875C18.6205 18.7408 18.2388 18.6811 18.2745 19.0569C18.3342 19.7548 19.6166 20.9179 19.6166 20.9179Z" fill="white"/>
</svg>
