<svg width="41" height="41" viewBox="0 0 41 41" fill="none" xmlns="http://www.w3.org/2000/svg">
<path d="M20.2056 40.1299C16.2371 40.1299 12.3578 38.9531 9.0581 36.7484C5.75843 34.5436 3.18666 31.4099 1.66799 27.7435C0.149318 24.0771 -0.248034 20.0427 0.526177 16.1505C1.30039 12.2583 3.21139 8.68304 6.01752 5.8769C8.82366 3.07077 12.3989 1.15976 16.2911 0.385551C20.1833 -0.38866 24.2177 0.00869599 27.8841 1.52737C31.5505 3.04604 34.6842 5.61781 36.889 8.91748C39.0938 12.2171 40.2706 16.0965 40.2706 20.065C40.2658 25.3851 38.1503 30.4859 34.3884 34.2478C30.6265 38.0097 25.5257 40.1252 20.2056 40.1299Z" fill="#E8003D"/>
<path d="M37.2642 20.0613C37.2642 10.6383 29.6254 2.99951 20.2024 2.99951C10.7794 2.99951 3.14062 10.6383 3.14062 20.0613C3.14062 29.4842 10.7794 37.1231 20.2024 37.1231C29.6254 37.1231 37.2642 29.4842 37.2642 20.0613Z" fill="#E8003D"/>
<path d="M25.7162 13.1221H14.6936C12.3317 13.1221 10.417 15.0368 10.417 17.3987V22.7311C10.417 25.093 12.3317 27.0077 14.6936 27.0077H25.7162C28.0781 27.0077 29.9928 25.093 29.9928 22.7311V17.3987C29.9928 15.0368 28.0781 13.1221 25.7162 13.1221Z" fill="#FFFEFC"/>
<path d="M23.3775 20.3392L17.4487 24.4249C17.3986 24.4598 17.3399 24.4803 17.279 24.4841C17.218 24.488 17.1572 24.4751 17.1031 24.4468C17.049 24.4185 17.0037 24.376 16.9721 24.3237C16.9405 24.2715 16.9238 24.2116 16.9238 24.1505V15.9671C16.9238 15.906 16.9405 15.8461 16.9721 15.7939C17.0037 15.7417 17.049 15.6991 17.1031 15.6708C17.1572 15.6425 17.218 15.6296 17.279 15.6335C17.3399 15.6373 17.3986 15.6578 17.4487 15.6927L23.3477 19.7904C23.3938 19.8187 23.4323 19.8577 23.46 19.9041C23.4876 19.9506 23.5036 20.003 23.5065 20.057C23.5095 20.1109 23.4993 20.1648 23.4768 20.2139C23.4543 20.2631 23.4203 20.3061 23.3775 20.3392Z" fill="#E8003D"/>
</svg>
