<svg width="232" height="52" viewBox="0 0 232 52" fill="none" xmlns="http://www.w3.org/2000/svg">
<path d="M43.2143 11.1191C41.5704 9.18409 39.8565 7.65007 37.9077 6.38249C24.2527 -2.50161 5.7278 5.65599 3.05666 21.7295C0.981555 34.2158 9.32593 46.0416 21.7848 48.0055C30.088 49.3129 37.1249 46.6967 42.7748 40.448C43.0797 40.1102 43.3324 39.9303 43.8158 40.0566C44.2278 40.1637 44.6796 40.1404 45.1136 40.139C45.5462 40.139 45.9802 40.0951 46.4979 40.0649C46.3922 40.2475 46.3222 40.3972 46.226 40.5277C41.6048 46.6733 35.5003 50.2783 27.822 50.9499C14.513 52.1131 2.7147 43.1961 0.414368 30.0642C-2.22243 15.0098 8.08581 2.6017 21.0844 0.409861C29.7227 -1.04587 37.2293 1.39454 43.5714 7.43858C43.9243 7.77505 44.0823 8.09229 43.9326 8.5757C43.6895 9.35438 43.4862 10.1468 43.2143 11.1191Z" fill="#226D7F"/>
<path d="M44.9474 9.5343C45.9074 13.8054 48.3547 17.3609 50.7951 20.9316C52.2481 23.0561 52.943 25.4554 53.0817 28.0207C53.2121 30.4337 52.8139 32.7189 51.4515 34.7666C50.1221 36.7648 48.3244 38.1298 45.9101 38.4416C42.8146 38.8399 40.4168 37.5256 38.6507 35.0659C36.6346 32.2588 36.4121 29.0988 37.0823 25.8124C37.5232 23.6467 38.4721 21.7281 39.7603 19.9346C41.5374 17.4626 43.1168 14.8628 44.2017 11.9994C44.5079 11.1905 44.7057 10.3418 44.9474 9.5343Z" fill="#226D7F"/>
<path d="M39.071 37.8964C39.4556 38.1765 39.7975 38.443 40.156 38.6819C40.5158 38.9209 40.8921 39.1337 41.3961 39.44C40.5185 40.2654 39.7234 41.11 38.8307 41.8351C30.2268 48.8308 17.9601 48.1181 10.2489 40.1349C6.74001 36.5024 4.82147 32.1201 4.43281 27.0621C3.63765 16.7319 10.5757 7.26005 20.6217 5.05173C29.1034 3.18674 36.2269 5.73702 41.9015 12.3222C42.205 12.6737 42.2517 12.936 41.9907 13.3357C41.5705 13.9798 41.2162 14.6664 40.8179 15.3627C34.0323 5.46648 20.8345 4.82788 12.9653 12.0406C5.54796 18.8372 5.07691 30.6273 12.0782 38.1243C19.0945 45.6365 31.4737 46.102 39.071 37.8964Z" fill="#48AFC6"/>
<path d="M38.2016 19.3042C33.8399 10.9928 23.8393 9.35852 17.3022 14.1089C10.7679 18.8579 9.50992 28.0153 14.4759 34.2831C20.0393 41.305 30.9243 41.4451 36.4781 34.4809C36.9834 35.2335 37.4861 35.9847 38.0135 36.7703C35.801 39.1983 33.1285 40.8903 29.9547 41.7362C20.178 44.3442 10.5303 38.0735 8.90016 28.0757C7.40048 18.884 14.0419 9.98888 23.349 8.91356C30.1855 8.12252 35.5909 10.703 39.5667 16.3131C39.8276 16.6825 39.8647 16.9531 39.5749 17.328C39.1011 17.9391 38.6878 18.5969 38.2016 19.3042Z" fill="#226D7F"/>
<path d="M17.9423 15.3888C21.1696 15.3888 24.3475 15.3243 27.5213 15.4053C31.3474 15.5028 34.2382 18.2618 34.6969 22.055C34.9565 24.1932 34.7876 26.2505 33.7727 28.1883C33.0805 29.5094 32.0354 30.4625 30.7225 31.1519C30.3146 31.3662 30.0551 31.3579 29.7516 30.9487C28.771 29.6262 27.7437 28.3393 26.7371 27.0374C26.63 26.8987 26.5366 26.749 26.3979 26.5499C27.0255 26.4853 27.5872 26.4647 28.1351 26.3631C29.6334 26.0871 30.43 25.1656 30.4423 23.7483C30.4561 22.1374 29.79 21.2983 28.1928 20.9687C27.7946 20.8863 27.3771 20.8588 26.9678 20.8629C25.4585 20.8808 23.9506 20.933 22.4413 20.9412C22.2257 20.9426 21.9332 20.8327 21.8054 20.672C20.5104 19.0446 19.2401 17.3952 17.967 15.7514C17.9478 15.7225 17.9615 15.6662 17.9423 15.3888Z" fill="#48AFC6"/>
<path d="M32.1975 37.2399C30.224 37.2399 28.3082 37.2482 26.3924 37.2262C26.229 37.2248 26.023 37.0614 25.9104 36.9158C23.1637 33.4083 20.4267 29.8926 17.6388 26.3151C17.8434 26.2876 17.9862 26.2519 18.1291 26.2505C19.821 26.2464 21.513 26.2313 23.2049 26.2656C23.4782 26.2711 23.8394 26.4277 24.0056 26.6364C26.7275 30.078 29.4247 33.5402 32.1261 36.9982C32.1508 37.0312 32.1522 37.0806 32.1975 37.2399Z" fill="#48AFC6"/>
<path d="M47.3425 11.0046V8.07944H48.6362C48.7707 8.07944 48.8943 8.10691 49.007 8.16184C49.1223 8.21677 49.2212 8.29093 49.3036 8.38432C49.3887 8.47771 49.4533 8.58208 49.4972 8.69744C49.5439 8.8128 49.5673 8.93091 49.5673 9.05176C49.5673 9.17536 49.5453 9.29484 49.5014 9.4102C49.4602 9.52281 49.3997 9.62169 49.3201 9.70684C49.2404 9.79199 49.147 9.85791 49.0399 9.9046L49.7074 11.0046H49.0811L48.4796 10.0241H47.911V11.0046H47.3425ZM47.911 9.52556H48.6238C48.6952 9.52556 48.7584 9.50496 48.8133 9.46376C48.8683 9.41981 48.9122 9.36213 48.9452 9.29072C48.9781 9.21931 48.9946 9.13965 48.9946 9.05176C48.9946 8.95837 48.9754 8.87735 48.9369 8.80868C48.8985 8.73727 48.849 8.68096 48.7886 8.63976C48.7309 8.59856 48.6677 8.57796 48.5991 8.57796H47.911V9.52556Z" fill="#226D7F"/>
<circle cx="48.4796" cy="9.40798" r="2.54067" stroke="#226D7F" stroke-width="0.274667"/>
<path d="M171.594 41.3083C171.594 41.643 171.594 41.9114 171.594 42.2296C133.942 42.2296 96.3238 42.2296 58.6587 42.2296C58.6587 41.9363 58.6587 41.648 58.6587 41.3083C96.2824 41.3083 133.901 41.3083 171.594 41.3083Z" fill="#226D7F"/>
<path d="M171.593 32.0532C171.593 32.3763 171.593 32.6447 171.593 32.9645C133.946 32.9645 96.3288 32.9645 58.6587 32.9645C58.6587 32.6795 58.6587 32.3912 58.6587 32.0532C96.2708 32.0532 133.889 32.0532 171.593 32.0532Z" fill="#226D7F"/>
<path d="M68.2981 19.5705C70.1323 22.2099 71.93 24.7962 73.8436 27.5516C72.2646 27.5516 70.8977 27.5731 69.5325 27.5267C69.3353 27.5201 69.11 27.2136 68.9642 27.0015C67.6271 25.0746 66.2337 23.1825 65.0043 21.1876C64.378 20.1703 63.649 19.8638 62.4843 20.1504C62.4843 22.5562 62.4843 24.9967 62.4843 27.4969C61.2019 27.4969 60.0007 27.4969 58.7299 27.4969C58.7299 20.901 58.7299 14.2719 58.7299 7.56006C59.5881 7.56006 60.4364 7.55178 61.2864 7.56172C63.2166 7.58326 65.1584 7.49379 67.0754 7.6661C69.9815 7.92622 72.1039 9.98568 72.5413 12.7244C72.987 15.5146 71.703 17.8706 69.0139 19.1961C68.7985 19.3038 68.5881 19.4198 68.2981 19.5705ZM62.4975 16.5716C63.6325 16.5716 64.7276 16.575 65.8245 16.5683C66.0713 16.5667 66.3215 16.5534 66.5634 16.507C67.8988 16.2552 68.7654 15.2478 68.7985 13.9207C68.8317 12.6134 68.0496 11.3542 66.8368 11.22C65.4086 11.0626 63.9506 11.1836 62.4975 11.1836C62.4975 12.9779 62.4975 14.7309 62.4975 16.5716Z" fill="#226D7F"/>
<path d="M221.517 27.5349C220.243 27.5349 219.088 27.5349 217.867 27.5349C217.867 20.9059 217.867 14.2984 217.867 7.62628C219.048 7.62628 220.241 7.62628 221.426 7.62628C221.426 10.0801 221.426 12.509 221.426 15.034C221.649 14.7938 221.818 14.595 222.005 14.4127C223.634 12.8255 225.583 12.5421 227.685 13.1204C229.625 13.6539 230.629 15.0788 230.999 16.9759C231.156 17.7827 231.232 18.6145 231.242 19.4379C231.272 22.1104 231.254 24.7829 231.254 27.5068C229.987 27.5068 228.79 27.5068 227.529 27.5068C227.516 27.2284 227.491 26.9633 227.491 26.6966C227.488 24.213 227.493 21.7277 227.488 19.2441C227.485 17.7148 226.877 16.777 225.674 16.4175C224.385 16.0315 222.988 16.4656 222.309 17.7016C221.876 18.4902 221.593 19.4495 221.555 20.3475C221.45 22.7102 221.517 25.0812 221.517 27.5349Z" fill="#226D7F"/>
<path d="M198.775 21.3019C197.035 21.3019 195.276 21.3019 193.516 21.3019C191.781 21.3019 190.045 21.3019 188.312 21.3019C188.289 22.692 189.278 24.0175 190.66 24.5063C192.515 25.1624 194.303 24.5593 195.723 22.7484C196.659 23.2073 197.612 23.6745 198.651 24.1849C197.582 26.0803 196.096 27.303 194.016 27.7885C190.055 28.7147 186.287 26.7894 185.035 23.1874C183.709 19.3783 185.311 15.1517 188.82 13.5578C191.443 12.3666 194.054 12.5505 196.404 14.315C198.374 15.7962 199.355 18.7835 198.775 21.3019ZM195.36 18.6742C195.063 16.9212 193.668 15.8426 191.854 15.8741C190.174 15.9039 188.708 17.1101 188.482 18.6742C190.757 18.6742 193.027 18.6742 195.36 18.6742Z" fill="#226D7F"/>
<path d="M77.5449 17.5094C76.743 16.8781 76.0074 16.2999 75.2121 15.6753C76.1764 14.3862 77.4339 13.5959 78.9251 13.1767C80.6698 12.6863 82.426 12.7443 84.1524 13.2662C86.3395 13.9273 87.6865 15.4383 87.7876 17.695C87.9334 20.9407 87.824 24.1997 87.824 27.5052C86.6692 27.5052 85.521 27.5052 84.3181 27.5052C84.285 27.0909 84.2502 26.6668 84.2088 26.1449C84.0298 26.2675 83.9139 26.3238 83.8277 26.4083C82.1062 28.1232 80.0584 28.3767 77.8564 27.6427C75.9742 27.0147 74.8377 25.3927 74.7946 23.3448C74.7548 21.3881 75.671 19.9566 77.4207 19.0983C79.2747 18.187 81.2182 18.2931 83.1716 18.699C83.493 18.7653 83.8095 18.863 84.1259 18.9459C84.4672 17.7298 83.8907 16.6014 82.6248 16.1292C80.9779 15.5162 79.4785 15.8791 78.1331 16.9626C77.9409 17.1167 77.7719 17.2973 77.5449 17.5094ZM81.4683 20.9921C80.8139 21.1213 80.2307 21.1727 79.6939 21.3549C78.8754 21.6333 78.5009 22.2712 78.4877 23.136C78.4744 24.0125 78.8853 24.6057 79.6756 24.9354C81.6108 25.7439 83.9652 24.382 84.2005 22.2911C84.2253 22.0641 83.9967 21.6499 83.7979 21.5836C83.0225 21.3251 82.2123 21.171 81.4683 20.9921Z" fill="#226D7F"/>
<path d="M171.883 20.4055C171.902 24.7912 168.713 28.0088 164.337 28.0171C159.942 28.0254 156.749 24.8542 156.732 20.4652C156.716 16.0795 159.889 12.8752 164.278 12.8454C168.643 12.8155 171.863 16.0166 171.883 20.4055ZM168.209 20.4039C168.194 17.9998 166.536 16.2651 164.274 16.2883C162.033 16.3115 160.391 18.0959 160.411 20.4867C160.432 22.8809 162.094 24.6123 164.359 24.5957C166.62 24.5791 168.224 22.8328 168.209 20.4039Z" fill="#226D7F"/>
<path d="M134.108 27.5267C132.837 27.5267 131.687 27.5267 130.483 27.5267C130.483 22.7964 130.483 18.0976 130.483 13.3507C131.596 13.3507 132.687 13.3507 133.874 13.3507C133.874 13.9107 133.874 14.4674 133.874 15.102C134.05 15.0109 134.135 14.9926 134.178 14.9413C135.747 13.0375 138.055 12.3748 140.432 13.1519C142.301 13.7632 143.575 15.5129 143.64 17.9153C143.726 21.0848 143.661 24.2577 143.661 27.4935C142.474 27.4935 141.304 27.4935 140.058 27.4935C140.046 27.2384 140.023 26.9733 140.023 26.7082C140.02 24.2527 140.028 21.7956 140.02 19.3402C140.013 17.6022 139.334 16.608 138.003 16.3413C136.529 16.0464 135.147 16.7572 134.546 18.255C134.275 18.9276 134.143 19.6948 134.126 20.4221C134.077 22.7632 134.108 25.106 134.108 27.5267Z" fill="#226D7F"/>
<path d="M98.9747 13.3275C100.115 13.3275 101.185 13.3275 102.36 13.3275C102.36 13.9041 102.36 14.4608 102.36 15.0805C102.868 14.6265 103.254 14.204 103.715 13.8842C105.496 12.6482 107.44 12.5157 109.385 13.3507C111.267 14.1576 112.051 15.8459 112.115 17.7546C112.223 20.9772 112.145 24.2064 112.145 27.4936C110.975 27.4936 109.804 27.4936 108.508 27.4936C108.508 27.2169 108.508 26.9286 108.508 26.6386C108.508 24.1815 108.512 21.7244 108.507 19.2673C108.503 17.6602 107.892 16.7108 106.667 16.3877C105.262 16.0166 103.843 16.5799 103.196 17.9534C102.845 18.7007 102.653 19.5838 102.626 20.4122C102.552 22.7533 102.6 25.0978 102.6 27.4985C101.379 27.4985 100.207 27.4985 98.9747 27.4985C98.9747 22.8063 98.9747 18.1059 98.9747 13.3275Z" fill="#226D7F"/>
<path d="M211.986 22.6174C213.045 23.088 214.117 23.5635 215.186 24.0373C213.867 27.0627 210.384 28.6036 206.772 27.8282C203.263 27.0743 201 24.0489 201.083 20.2249C201.162 16.55 203.528 13.6357 206.946 13.0044C210.633 12.3218 213.887 13.8146 215.068 16.7986C213.988 17.2526 212.906 17.7065 211.841 18.1539C209.949 16.0049 207.627 15.6835 205.965 17.3072C204.312 18.9227 204.35 22.1303 206.04 23.6679C207.757 25.2286 210.123 24.8243 211.986 22.6174Z" fill="#226D7F"/>
<path d="M155.912 7.62792C155.912 8.82416 155.912 9.95082 155.912 11.1587C154.741 10.8853 153.493 10.3468 152.545 11.4585C152.183 11.8844 152.13 12.5736 151.888 13.2794C153.236 13.2794 154.332 13.2794 155.488 13.2794C155.488 14.3464 155.488 15.3505 155.488 16.4307C154.388 16.4307 153.298 16.4307 152.103 16.4307C152.103 20.1553 152.103 23.8054 152.103 27.5051C150.826 27.5051 149.651 27.5051 148.377 27.5051C148.377 23.8567 148.377 20.2034 148.377 16.4622C147.495 16.4622 146.71 16.4622 145.883 16.4622C145.883 15.3919 145.883 14.4094 145.883 13.3374C146.669 13.3374 147.452 13.3374 148.33 13.3374C148.297 11.0311 148.766 9.01305 150.978 7.91787C152.572 7.13087 154.226 7.22862 155.912 7.62792Z" fill="#226D7F"/>
<path d="M179.378 13.2977C180.599 13.2977 181.671 13.2977 182.811 13.2977C182.811 14.3415 182.811 15.3422 182.811 16.4457C181.706 16.4457 180.593 16.4457 179.441 16.4457C179.441 18.6924 179.373 20.8413 179.468 22.9819C179.519 24.1368 180.765 24.6521 182.042 24.1782C182.321 24.0755 182.583 23.923 182.967 23.7375C182.967 24.884 182.987 25.9444 182.945 27.0031C182.939 27.1671 182.679 27.4057 182.49 27.4621C181.08 27.8912 179.655 27.9525 178.271 27.3809C176.388 26.6022 175.733 25.0282 175.698 23.1311C175.664 21.1992 175.692 19.2656 175.688 17.3338C175.688 17.067 175.665 16.7986 175.649 16.4606C174.833 16.4606 174.071 16.4606 173.264 16.4606C173.264 15.4052 173.264 14.4227 173.264 13.3341C174.036 13.3341 174.815 13.3341 175.682 13.3341C175.682 11.949 175.682 10.6666 175.682 9.33948C176.944 9.33948 178.119 9.33948 179.378 9.33948C179.378 10.6335 179.378 11.9192 179.378 13.2977Z" fill="#226D7F"/>
<path d="M126.376 27.5333C125.125 27.5333 123.943 27.5333 122.694 27.5333C122.694 20.9142 122.694 14.3084 122.694 7.63129C123.884 7.63129 125.103 7.63129 126.376 7.63129C126.376 14.2388 126.376 20.843 126.376 27.5333Z" fill="#226D7F"/>
<path d="M95.0977 13.3689C95.0977 18.0942 95.0977 22.7765 95.0977 27.5068C93.8965 27.5068 92.7267 27.5068 91.5139 27.5068C91.5139 22.7947 91.5139 18.1141 91.5139 13.3689C92.6754 13.3689 93.8434 13.3689 95.0977 13.3689Z" fill="#226D7F"/>
<path d="M95.6543 9.39582C95.6527 10.7246 94.6188 11.7817 93.3182 11.7833C91.9778 11.785 90.9207 10.7031 90.939 9.34777C90.9555 8.05377 92.0308 6.99505 93.3231 7.00002C94.6022 7.00499 95.656 8.08691 95.6543 9.39582Z" fill="#226D7F"/>
<path d="M224.761 35.1167C224.761 33.9635 224.761 32.812 224.761 31.6108C225.392 31.6108 225.982 31.6108 226.618 31.6108C226.618 35.0819 226.618 38.5215 226.618 42.034C226.066 42.034 225.508 42.034 224.908 42.034C224.88 41.807 224.852 41.5767 224.801 41.1492C223.967 42.3455 222.821 42.4996 221.717 42.2262C220.996 42.0489 220.253 41.5336 219.757 40.9637C218.349 39.3383 218.621 36.5747 220.208 35.1846C221.525 34.0298 223.314 34.0695 224.617 35.279C224.678 35.2906 224.741 35.3022 224.802 35.3138C224.789 35.2476 224.774 35.1813 224.761 35.1167ZM220.837 38.3425C220.837 39.5819 221.694 40.5014 222.844 40.4981C223.979 40.4948 224.852 39.5504 224.85 38.3276C224.849 37.1132 223.962 36.1671 222.827 36.1671C221.692 36.1671 220.837 37.0999 220.837 38.3425Z" fill="#226D7F"/>
<path d="M177.115 38.3062C177.115 39.567 177.115 40.7716 177.115 42.0391C176.437 42.0391 175.819 42.0391 175.145 42.0391C175.145 38.5879 175.145 35.1284 175.145 31.6705C176.686 31.6705 178.232 31.5214 179.736 31.7103C181.418 31.9207 182.423 33.3456 182.377 34.9991C182.332 36.6212 181.202 37.9085 179.532 38.1521C178.773 38.2648 177.998 38.2548 177.115 38.3062ZM177.146 36.3064C177.88 36.3064 178.515 36.3594 179.138 36.2931C179.885 36.2136 180.336 35.7265 180.39 34.9826C180.443 34.2701 180.074 33.6886 179.386 33.5693C178.656 33.4433 177.887 33.5411 177.148 33.5411C177.146 34.4888 177.146 35.3587 177.146 36.3064Z" fill="#226D7F"/>
<path d="M208.312 31.6191C208.312 34.4838 208.312 37.2855 208.312 40.1634C209.793 40.1634 211.213 40.1634 212.686 40.1634C212.686 40.8278 212.686 41.416 212.686 42.0539C210.577 42.0539 208.497 42.0539 206.353 42.0539C206.353 38.5894 206.353 35.1333 206.353 31.6174C206.951 31.6191 207.568 31.6191 208.312 31.6191Z" fill="#226D7F"/>
<path d="M182.894 34.5616C183.605 34.5616 184.208 34.5086 184.793 34.5898C185.003 34.618 185.238 34.9344 185.346 35.1714C185.651 35.8474 185.895 36.5532 186.163 37.2457C186.431 37.9366 186.701 38.6275 187.054 39.5372C187.336 38.8264 187.55 38.2879 187.764 37.7511C188.088 36.9326 188.446 36.1241 188.724 35.2907C188.91 34.734 189.188 34.4755 189.796 34.5517C190.224 34.6064 190.663 34.5616 191.213 34.5616C190.507 36.2251 189.848 37.7875 189.185 39.3483C188.862 40.1088 188.569 40.8842 188.189 41.6165C188.072 41.8435 187.714 42.0837 187.47 42.0788C186.963 42.0705 186.135 42.0572 186.006 41.7789C184.914 39.4444 183.948 37.0519 182.894 34.5616Z" fill="#226D7F"/>
<path d="M212.966 34.5881C213.383 34.5682 213.736 34.5533 214.189 34.5318C214.189 33.8657 214.189 33.2229 214.189 32.5353C214.883 32.5353 215.478 32.5353 216.142 32.5353C216.142 33.1748 216.142 33.8011 216.142 34.5069C216.767 34.5401 217.327 34.5699 217.931 34.6014C217.931 35.1299 217.931 35.617 217.931 36.2002C217.39 36.2284 216.83 36.2566 216.192 36.2897C216.192 37.4213 216.167 38.5165 216.202 39.6084C216.218 40.1435 216.594 40.3838 217.111 40.339C217.405 40.3142 217.693 40.2181 218.054 40.1385C218.054 40.4103 218.054 40.6538 218.054 40.8957C218.057 42.0373 217.824 42.2709 216.684 42.2593C215.261 42.2444 214.275 41.3215 214.23 39.8917C214.192 38.7103 214.222 37.5274 214.222 36.2864C213.774 36.2599 213.398 36.2367 212.966 36.2118C212.966 35.6833 212.966 35.1763 212.966 34.5881Z" fill="#226D7F"/>
<path d="M195.02 36.2102C195.02 37.3783 194.984 38.3972 195.03 39.4096C195.073 40.3374 195.547 40.5197 196.856 40.1585C196.869 40.3821 196.893 40.5975 196.896 40.8129C196.913 42.0721 196.563 42.3836 195.289 42.2544C193.963 42.1202 193.133 41.2139 193.072 39.8072C193.047 39.229 193.064 38.6491 193.062 38.0692C193.06 37.4943 193.062 36.9193 193.062 36.2964C192.628 36.2665 192.253 36.24 191.821 36.2119C191.821 35.685 191.821 35.1796 191.821 34.6047C192.189 34.5799 192.563 34.5534 193.034 34.5219C193.034 33.8807 193.034 33.2362 193.034 32.5403C193.718 32.5403 194.311 32.5403 195.001 32.5403C195.001 33.1848 195.001 33.831 195.001 34.5649C195.658 34.5649 196.223 34.5649 196.82 34.5649C196.82 35.1432 196.82 35.632 196.82 36.2085C196.256 36.2102 195.691 36.2102 195.02 36.2102Z" fill="#226D7F"/>
<path d="M230.979 40.8593C230.989 41.532 230.353 42.2229 229.708 42.2395C229.082 42.256 228.404 41.5585 228.399 40.8941C228.394 40.2131 228.953 39.6283 229.634 39.6001C230.353 39.5703 230.967 40.1469 230.979 40.8593Z" fill="#226D7F"/>
<path d="M200.859 40.8875C200.856 41.58 200.22 42.2494 199.575 42.2411C198.936 42.2328 198.283 41.5353 198.289 40.8676C198.298 40.1866 198.864 39.6217 199.554 39.6067C200.292 39.5902 200.864 40.1502 200.859 40.8875Z" fill="#226D7F"/>
<path d="M61.9737 38.0586C62.0578 38.0586 62.0999 38.1104 62.0999 38.2139C62.0999 38.3218 61.9801 38.4761 61.7407 38.6767C61.5012 38.8773 61.224 39.037 60.909 39.1556C60.5962 39.2743 60.3093 39.3336 60.0482 39.3336C59.6664 39.3336 59.318 39.2074 59.003 38.955C58.6902 38.7026 58.5338 38.3369 58.5338 37.858C58.5338 36.9842 58.9091 36.1343 59.6599 35.308C60.4128 34.4796 61.1377 34.0653 61.8345 34.0653C62.0956 34.0653 62.3037 34.1463 62.4591 34.3081C62.6166 34.4677 62.6953 34.6543 62.6953 34.8679C62.6953 35.0664 62.6834 35.2228 62.6597 35.3371C62.6381 35.4514 62.5702 35.5485 62.4558 35.6284C62.3415 35.706 62.2498 35.7448 62.1808 35.7448C62.1311 35.7448 62.088 35.7233 62.0513 35.6801C62.0147 35.637 61.9963 35.5787 61.9963 35.5054C61.9963 35.4558 62.0147 35.3522 62.0513 35.1947C62.088 35.0394 62.1063 34.924 62.1063 34.8485C62.1063 34.6284 62.0103 34.5184 61.8183 34.5184C61.5206 34.5184 61.1517 34.6899 60.7116 35.0329C60.2737 35.3738 59.9015 35.8074 59.5952 36.3338C59.2888 36.858 59.1357 37.3413 59.1357 37.7835C59.1357 38.0791 59.223 38.325 59.3978 38.5214C59.5747 38.7155 59.826 38.8126 60.1518 38.8126C60.3395 38.8126 60.5671 38.7662 60.8346 38.6735C61.1042 38.5785 61.3513 38.4523 61.5756 38.2948C61.8 38.1374 61.9327 38.0586 61.9737 38.0586ZM65.4765 37.858C65.1744 38.2636 64.8756 38.5677 64.5801 38.7705C64.2845 38.9733 64.0138 39.0747 63.7678 39.0747C63.6017 39.0747 63.4583 39.0046 63.3375 38.8644C63.2166 38.7242 63.1562 38.544 63.1562 38.324C63.1562 37.7566 63.4097 37.146 63.9167 36.4924C64.4237 35.8365 64.9274 35.5086 65.4279 35.5086C65.6091 35.5086 65.744 35.6122 65.8324 35.8193C65.8605 35.8883 65.9047 35.9228 65.9651 35.9228C66.1377 35.9228 66.224 35.9897 66.224 36.1235C66.224 36.1903 66.2132 36.282 66.1916 36.3985C66.0751 37.0349 66.0169 37.4837 66.0169 37.7447C66.0169 38.2668 66.1161 38.5796 66.3146 38.6832C66.4095 38.7349 66.457 38.7986 66.457 38.8741C66.457 38.941 66.4106 39.0078 66.3178 39.0747C66.2251 39.1438 66.1355 39.1783 66.0492 39.1783C65.8831 39.1783 65.7461 39.0639 65.6383 38.8353C65.5304 38.6066 65.4765 38.2808 65.4765 37.858ZM65.2791 36.0361C64.9943 36.0361 64.6631 36.3036 64.2856 36.8386C63.9081 37.3715 63.7193 37.8137 63.7193 38.1654C63.7193 38.4135 63.8013 38.5375 63.9652 38.5375C64.2026 38.5375 64.5315 38.2981 64.9522 37.8191C65.3729 37.3402 65.5833 36.9001 65.5833 36.4988C65.5833 36.1903 65.4819 36.0361 65.2791 36.0361ZM69.5876 36.5474C69.4755 36.5474 69.3525 36.6207 69.2187 36.7674C69.0871 36.9141 68.8854 37.2431 68.6136 37.7544C68.2555 38.4405 68.0236 38.8309 67.9179 38.9259C67.8143 39.0208 67.728 39.0682 67.659 39.0682C67.4044 39.0682 67.2771 38.9453 67.2771 38.6993C67.2771 38.5958 67.2944 38.4491 67.3289 38.2592C67.4476 37.6077 67.5069 36.9206 67.5069 36.1979C67.5069 36.1159 67.5414 36.0253 67.6104 35.9261C67.6816 35.8247 67.7485 35.774 67.8111 35.774C67.9233 35.774 68.0031 35.8085 68.0505 35.8775C68.098 35.9466 68.1217 36.0857 68.1217 36.295C68.1217 36.5129 68.057 36.9616 67.9276 37.6412C67.8844 37.8655 67.8628 38.0079 67.8628 38.0683C67.8628 38.1028 67.8715 38.1201 67.8887 38.1201C67.9211 38.1201 68.071 37.8623 68.3385 37.3467C68.6082 36.8224 68.8444 36.4535 69.0472 36.24C69.25 36.0264 69.4733 35.9196 69.7171 35.9196C69.9113 35.9196 70.0687 36.008 70.1895 36.1849C70.3125 36.3619 70.402 36.6844 70.4581 37.1525C70.5185 37.6854 70.5725 38.0176 70.6199 38.1492C70.6696 38.2787 70.7472 38.3434 70.8529 38.3434C70.9198 38.3434 71.0039 38.3196 71.1053 38.2722C71.1226 38.2636 71.1355 38.2592 71.1442 38.2592C71.2369 38.2592 71.2833 38.3132 71.2833 38.421C71.2833 38.516 71.2197 38.6174 71.0924 38.7252C70.9651 38.8309 70.8119 38.8838 70.6329 38.8838C70.4495 38.8838 70.3071 38.8115 70.2057 38.667C70.1065 38.5203 70.0277 38.1309 69.9695 37.4988C69.9091 36.8645 69.7818 36.5474 69.5876 36.5474ZM72.0517 33.9197C72.0582 33.8982 72.1013 33.8701 72.1811 33.8356C72.2631 33.7989 72.3214 33.7806 72.3559 33.7806C72.3904 33.7806 72.4573 33.8313 72.5565 33.9327L72.6439 34.0233C72.741 34.1204 72.8154 34.2325 72.8672 34.3598C72.8887 34.4051 72.8995 34.4774 72.8995 34.5766C72.8995 34.76 72.8348 35.0362 72.7054 35.4051C72.5781 35.7718 72.426 35.9552 72.2491 35.9552C72.1844 35.9552 72.1283 35.9358 72.0808 35.8969C72.0334 35.8581 72.0096 35.8085 72.0096 35.7481C72.0096 35.6381 72.0538 35.5453 72.1423 35.4698C72.3472 35.2886 72.4497 35.0567 72.4497 34.774C72.4497 34.6662 72.358 34.5313 72.1747 34.3695C72.1164 34.3178 72.0819 34.2854 72.0711 34.2725C72.0603 34.2574 72.0528 34.1969 72.0485 34.0912C72.0441 33.9855 72.0452 33.9284 72.0517 33.9197ZM75.0659 35.7707C75.2881 35.7535 75.4973 35.733 75.6936 35.7093C75.8878 35.6877 76.0496 35.6769 76.179 35.6769C76.343 35.6769 76.4466 35.692 76.4897 35.7222C76.5329 35.7524 76.5544 35.8053 76.5544 35.8808C76.5544 36.0555 76.4325 36.1504 76.1888 36.1655C75.8759 36.1849 75.5879 36.2119 75.3247 36.2464C75.0615 36.281 74.9192 36.3101 74.8976 36.3338C74.8782 36.3554 74.8134 36.6121 74.7034 37.104C74.5934 37.5937 74.5384 37.9119 74.5384 38.0586C74.5384 38.2959 74.5697 38.4545 74.6322 38.5343C74.6948 38.612 74.7886 38.6508 74.9138 38.6508C75.0993 38.6508 75.3571 38.5117 75.6872 38.2334C75.8145 38.119 75.9126 38.0618 75.9817 38.0618C76.0744 38.0618 76.1208 38.1115 76.1208 38.2107C76.1208 38.366 75.9709 38.5677 75.671 38.8158C75.3733 39.0618 75.068 39.1847 74.7552 39.1847C74.2331 39.1847 73.9721 38.8773 73.9721 38.2625C73.9721 38.0403 74.026 37.6962 74.1339 37.2302C74.2396 36.7664 74.2924 36.4881 74.2924 36.3953C74.2924 36.3629 74.2666 36.3467 74.2148 36.3467L73.8782 36.3759C73.6021 36.3759 73.464 36.2658 73.464 36.0458C73.464 35.9207 73.5277 35.8581 73.6549 35.8581H74.3216C74.3669 35.8581 74.4068 35.8376 74.4413 35.7966C74.4758 35.7556 74.5265 35.6186 74.5934 35.3856C74.6603 35.1505 74.7196 34.9186 74.7714 34.6899C74.8232 34.4634 74.9245 34.3501 75.0756 34.3501C75.1683 34.3501 75.2406 34.3825 75.2924 34.4472C75.3442 34.5119 75.37 34.5723 75.37 34.6284C75.37 34.6586 75.3312 34.8129 75.2535 35.0912L75.0659 35.7707ZM81.5343 38.2948C81.5343 38.1546 81.3617 37.995 81.0165 37.8159C80.5786 37.5915 80.2819 37.4125 80.1266 37.2787C79.9734 37.1428 79.8969 36.9918 79.8969 36.8257C79.8969 36.3964 80.1115 36.0404 80.5408 35.7578C80.9723 35.4752 81.3239 35.3339 81.5958 35.3339C81.7705 35.3339 81.8967 35.3641 81.9744 35.4245C82.0542 35.4849 82.0941 35.5895 82.0941 35.7384C82.0941 35.8053 82.065 35.8624 82.0067 35.9099C81.9507 35.9573 81.9064 35.9811 81.8741 35.9811C81.8503 35.9811 81.804 35.9649 81.7349 35.9325C81.6659 35.9023 81.6206 35.8872 81.599 35.8872C81.4911 35.8872 81.2722 35.966 80.9421 36.1235C80.612 36.281 80.447 36.4589 80.447 36.6574C80.447 36.7782 80.5052 36.8882 80.6217 36.9875C80.7382 37.0846 80.9475 37.2043 81.2495 37.3467C81.4933 37.4632 81.6875 37.5883 81.832 37.7221C81.9787 37.8537 82.0521 38.009 82.0521 38.188C82.0521 38.5181 81.8245 38.777 81.3692 38.9647C80.914 39.1502 80.4793 39.243 80.0651 39.243C79.7156 39.243 79.5409 39.1243 79.5409 38.887C79.5409 38.8051 79.5797 38.7446 79.6574 38.7058C79.7372 38.667 79.817 38.6476 79.8969 38.6476C79.9292 38.6476 79.9907 38.6584 80.0813 38.6799C80.1698 38.7015 80.228 38.7123 80.2561 38.7123C80.4955 38.7123 80.7522 38.6724 81.0262 38.5926C81.3002 38.5127 81.4696 38.4135 81.5343 38.2948ZM85.6908 37.9389C85.6908 38.1589 85.4955 38.4243 85.1051 38.7349C84.7167 39.0456 84.3155 39.2009 83.9012 39.2009C83.5539 39.2009 83.2853 39.0985 83.0955 38.8935C82.9078 38.6886 82.8139 38.4027 82.8139 38.036C82.8139 37.419 83.0221 36.8322 83.4385 36.2756C83.8549 35.719 84.3101 35.4407 84.8041 35.4407C84.9659 35.4407 85.0975 35.4935 85.1989 35.5992C85.3024 35.7049 85.3542 35.8322 85.3542 35.9811C85.3542 36.3133 85.1913 36.6315 84.8656 36.9357C84.5398 37.2399 84.104 37.5387 83.5582 37.8321C83.446 37.8903 83.39 37.9658 83.39 38.0586C83.39 38.2377 83.4417 38.3811 83.5453 38.489C83.6488 38.5969 83.802 38.6508 84.0048 38.6508C84.4686 38.6508 84.9422 38.3941 85.4254 37.8806C85.4966 37.8094 85.5505 37.7738 85.5872 37.7738C85.6563 37.7738 85.6908 37.8289 85.6908 37.9389ZM83.4417 37.4341C84.3564 36.8904 84.8138 36.4535 84.8138 36.1235C84.8138 35.994 84.7556 35.9293 84.6391 35.9293C84.4406 35.9293 84.2162 36.0749 83.966 36.3662C83.7179 36.6574 83.5431 37.0134 83.4417 37.4341ZM89.3392 37.9389C89.3392 38.1589 89.144 38.4243 88.7535 38.7349C88.3652 39.0456 87.9639 39.2009 87.5497 39.2009C87.2023 39.2009 86.9338 39.0985 86.7439 38.8935C86.5562 38.6886 86.4624 38.4027 86.4624 38.036C86.4624 37.419 86.6706 36.8322 87.0869 36.2756C87.5033 35.719 87.9585 35.4407 88.4525 35.4407C88.6143 35.4407 88.7459 35.4935 88.8473 35.5992C88.9509 35.7049 89.0027 35.8322 89.0027 35.9811C89.0027 36.3133 88.8398 36.6315 88.514 36.9357C88.1883 37.2399 87.7525 37.5387 87.2067 37.8321C87.0945 37.8903 87.0384 37.9658 87.0384 38.0586C87.0384 38.2377 87.0902 38.3811 87.1937 38.489C87.2973 38.5969 87.4504 38.6508 87.6532 38.6508C88.1171 38.6508 88.5906 38.3941 89.0738 37.8806C89.145 37.8094 89.199 37.7738 89.2356 37.7738C89.3047 37.7738 89.3392 37.8289 89.3392 37.9389ZM87.0902 37.4341C88.0049 36.8904 88.4622 36.4535 88.4622 36.1235C88.4622 35.994 88.404 35.9293 88.2875 35.9293C88.089 35.9293 87.8646 36.0749 87.6144 36.3662C87.3663 36.6574 87.1916 37.0134 87.0902 37.4341ZM94.0634 34.4634C94.6977 34.3598 95.1604 34.3081 95.4517 34.3081C95.9069 34.3081 96.2704 34.4159 96.5422 34.6317C96.814 34.8474 96.9499 35.1181 96.9499 35.4439C96.9499 35.7697 96.8054 36.0771 96.5163 36.3662C96.2294 36.6531 95.868 36.8785 95.4322 37.0425C95.3783 37.0641 95.3513 37.0867 95.3513 37.1105C95.3513 37.1471 95.5736 37.3381 96.018 37.6832C96.4645 38.0262 96.8744 38.3132 97.2477 38.544C97.3534 38.6087 97.4062 38.6939 97.4062 38.7997C97.4062 38.8687 97.3696 38.9377 97.2962 39.0068C97.225 39.0736 97.1581 39.1071 97.0956 39.1071C96.9683 39.1071 96.7644 39.0014 96.484 38.79C96.2057 38.5785 95.9166 38.3455 95.6167 38.091C94.9673 37.5452 94.6049 37.2701 94.5294 37.2658C94.3827 37.2615 94.2791 37.241 94.2187 37.2043C94.1583 37.1676 94.1281 37.1018 94.1281 37.0069C94.1281 36.9249 94.167 36.8537 94.2446 36.7933C94.3223 36.7308 94.414 36.6995 94.5197 36.6995C94.5564 36.6995 94.6146 36.7049 94.6944 36.7157C94.7743 36.7286 94.8336 36.7351 94.8724 36.7351C95.045 36.7351 95.3395 36.6067 95.7559 36.35C96.1744 36.0933 96.3836 35.7912 96.3836 35.4439C96.3836 35.2605 96.2898 35.103 96.1021 34.9714C95.9166 34.8398 95.6793 34.774 95.3902 34.774C95.1744 34.774 94.9587 34.7891 94.743 34.8193C94.5272 34.8495 94.3892 34.8754 94.3288 34.897C94.2705 34.9186 94.2231 34.9747 94.1864 35.0653C94.1497 35.1537 94.0882 35.4385 94.0019 35.9196C93.9156 36.4007 93.8477 36.8548 93.7981 37.282C93.7506 37.7091 93.7269 38.023 93.7269 38.2236C93.7269 38.379 93.7376 38.5138 93.7592 38.6281C93.7786 38.7425 93.7883 38.8342 93.7883 38.9032C93.7883 38.9679 93.7538 39.0348 93.6848 39.1038C93.6179 39.1729 93.5446 39.2074 93.4647 39.2074C93.2382 39.2074 93.125 39.024 93.125 38.6573C93.125 37.7922 93.2771 36.6412 93.5812 35.2044C93.5963 35.1289 93.6039 35.0847 93.6039 35.0718C93.6039 35.0588 93.5963 35.0394 93.5812 35.0135C93.4949 34.8776 93.4518 34.787 93.4518 34.7417C93.4518 34.6597 93.4917 34.5885 93.5715 34.5281C93.6514 34.4677 93.7236 34.4375 93.7883 34.4375L94.0634 34.4634ZM100.414 37.858C100.112 38.2636 99.8131 38.5677 99.5175 38.7705C99.222 38.9733 98.9512 39.0747 98.7053 39.0747C98.5392 39.0747 98.3957 39.0046 98.2749 38.8644C98.1541 38.7242 98.0937 38.544 98.0937 38.324C98.0937 37.7566 98.3472 37.146 98.8542 36.4924C99.3611 35.8365 99.8649 35.5086 100.365 35.5086C100.547 35.5086 100.681 35.6122 100.77 35.8193C100.798 35.8883 100.842 35.9228 100.903 35.9228C101.075 35.9228 101.161 35.9897 101.161 36.1235C101.161 36.1903 101.151 36.282 101.129 36.3985C101.013 37.0349 100.954 37.4837 100.954 37.7447C100.954 38.2668 101.054 38.5796 101.252 38.6832C101.347 38.7349 101.394 38.7986 101.394 38.8741C101.394 38.941 101.348 39.0078 101.255 39.0747C101.163 39.1438 101.073 39.1783 100.987 39.1783C100.821 39.1783 100.684 39.0639 100.576 38.8353C100.468 38.6066 100.414 38.2808 100.414 37.858ZM100.217 36.0361C99.9318 36.0361 99.6006 36.3036 99.2231 36.8386C98.8455 37.3715 98.6568 37.8137 98.6568 38.1654C98.6568 38.4135 98.7387 38.5375 98.9027 38.5375C99.14 38.5375 99.469 38.2981 99.8897 37.8191C100.31 37.3402 100.521 36.9001 100.521 36.4988C100.521 36.1903 100.419 36.0361 100.217 36.0361ZM103.363 34.7028C103.318 34.7028 103.284 34.6543 103.26 34.5572C103.251 34.527 103.239 34.4936 103.224 34.4569C103.166 34.3167 103.137 34.1948 103.137 34.0912C103.137 34.0049 103.188 33.9176 103.289 33.8291C103.392 33.7385 103.507 33.6932 103.632 33.6932C103.695 33.6932 103.765 33.718 103.842 33.7676C103.92 33.8151 103.959 33.8615 103.959 33.9068C103.959 33.978 103.932 34.0988 103.878 34.2692C103.826 34.4397 103.742 34.5551 103.625 34.6155C103.511 34.6737 103.424 34.7028 103.363 34.7028ZM102.939 38.3175C102.939 38.4814 102.962 38.6659 103.007 38.8709C103.016 38.9097 103.02 38.942 103.02 38.9679C103.02 39.0068 102.985 39.0564 102.914 39.1168C102.842 39.1794 102.767 39.2106 102.687 39.2106C102.478 39.2106 102.373 39.0186 102.373 38.6346C102.373 38.2377 102.455 37.6099 102.619 36.7513C102.675 36.4514 102.703 36.2669 102.703 36.1979C102.703 36.062 102.728 35.9466 102.778 35.8516C102.827 35.7546 102.897 35.706 102.988 35.706C103.098 35.706 103.184 35.733 103.247 35.7869C103.312 35.8387 103.344 35.8969 103.344 35.9617C103.344 36.0264 103.329 36.1116 103.299 36.2173C103.137 36.7868 103.037 37.1946 102.998 37.4405C102.959 37.6865 102.939 37.9788 102.939 38.3175ZM106.64 36.5474C106.527 36.5474 106.404 36.6207 106.271 36.7674C106.139 36.9141 105.937 37.2431 105.666 37.7544C105.307 38.4405 105.076 38.8309 104.97 38.9259C104.866 39.0208 104.78 39.0682 104.711 39.0682C104.456 39.0682 104.329 38.9453 104.329 38.6993C104.329 38.5958 104.346 38.4491 104.381 38.2592C104.5 37.6077 104.559 36.9206 104.559 36.1979C104.559 36.1159 104.593 36.0253 104.662 35.9261C104.734 35.8247 104.801 35.774 104.863 35.774C104.975 35.774 105.055 35.8085 105.103 35.8775C105.15 35.9466 105.174 36.0857 105.174 36.295C105.174 36.5129 105.109 36.9616 104.98 37.6412C104.936 37.8655 104.915 38.0079 104.915 38.0683C104.915 38.1028 104.923 38.1201 104.941 38.1201C104.973 38.1201 105.123 37.8623 105.391 37.3467C105.66 36.8224 105.896 36.4535 106.099 36.24C106.302 36.0264 106.525 35.9196 106.769 35.9196C106.963 35.9196 107.121 36.008 107.242 36.1849C107.365 36.3619 107.454 36.6844 107.51 37.1525C107.571 37.6854 107.624 38.0176 107.672 38.1492C107.722 38.2787 107.799 38.3434 107.905 38.3434C107.972 38.3434 108.056 38.3196 108.157 38.2722C108.175 38.2636 108.188 38.2592 108.196 38.2592C108.289 38.2592 108.335 38.3132 108.335 38.421C108.335 38.516 108.272 38.6174 108.144 38.7252C108.017 38.8309 107.864 38.8838 107.685 38.8838C107.502 38.8838 107.359 38.8115 107.258 38.667C107.158 38.5203 107.08 38.1309 107.022 37.4988C106.961 36.8645 106.834 36.5474 106.64 36.5474ZM109.621 37.1946C109.898 36.6919 110.228 36.2853 110.612 35.9746C110.996 35.6618 111.342 35.5054 111.65 35.5054C111.821 35.5054 111.965 35.5841 112.084 35.7416C112.203 35.8991 112.262 36.0911 112.262 36.3176C112.262 36.9886 112.009 37.6185 111.502 38.2075C110.997 38.7943 110.463 39.0877 109.9 39.0877C109.747 39.0877 109.605 39.0467 109.476 38.9647C109.349 38.8806 109.277 38.7759 109.262 38.6508C109.254 38.5494 109.225 38.4739 109.175 38.4243C109.082 38.3315 109.036 38.2323 109.036 38.1266C109.036 37.9302 109.09 37.5106 109.198 36.8677L109.531 34.9326C109.645 34.2832 109.728 33.882 109.78 33.7288C109.834 33.5756 109.893 33.4732 109.958 33.4214C110.023 33.3696 110.103 33.3437 110.197 33.3437C110.348 33.3437 110.424 33.4742 110.424 33.7353C110.424 33.9834 110.341 34.3307 110.175 34.7773C110.015 35.2066 109.831 36.0124 109.621 37.1946ZM109.544 38.2722C109.656 38.4814 109.792 38.5861 109.952 38.5861C110.197 38.5861 110.457 38.4847 110.731 38.2819C111.005 38.0769 111.242 37.79 111.44 37.4211C111.641 37.05 111.741 36.7372 111.741 36.4827C111.741 36.3683 111.721 36.2702 111.68 36.1882C111.639 36.1062 111.587 36.0652 111.524 36.0652C111.224 36.0652 110.858 36.3112 110.424 36.803C109.993 37.2927 109.699 37.7825 109.544 38.2722ZM114.03 39.1977C113.735 39.1977 113.491 39.0855 113.299 38.8611C113.107 38.6368 113.011 38.3596 113.011 38.0295C113.011 37.4729 113.198 36.9249 113.571 36.3856C113.946 35.8441 114.395 35.5733 114.917 35.5733C115.262 35.5733 115.542 35.706 115.755 35.9714C115.971 36.2367 116.079 36.5528 116.079 36.9195C116.079 37.4804 115.857 38.0004 115.412 38.4793C114.97 38.9582 114.509 39.1977 114.03 39.1977ZM113.581 37.9453C113.581 38.1632 113.626 38.3412 113.716 38.4793C113.809 38.6174 113.931 38.6864 114.082 38.6864C114.404 38.6864 114.726 38.5106 115.05 38.1589C115.373 37.8051 115.535 37.4125 115.535 36.981C115.535 36.7157 115.473 36.501 115.347 36.337C115.224 36.1709 115.058 36.0879 114.849 36.0879C114.502 36.0879 114.203 36.3014 113.953 36.7286C113.705 37.1536 113.581 37.5592 113.581 37.9453ZM119.595 36.8936C119.534 36.8958 119.388 37.1471 119.158 37.6476C118.968 38.0597 118.774 38.4275 118.575 38.7511C118.377 39.0726 118.231 39.2333 118.138 39.2333C117.871 39.2333 117.623 38.8363 117.394 38.0424C117.167 37.2464 117.054 36.6056 117.054 36.1202C117.054 35.9627 117.093 35.8322 117.171 35.7287C117.251 35.6251 117.344 35.569 117.452 35.5604C117.467 35.5582 117.494 35.5593 117.533 35.5636C117.572 35.5658 117.619 35.6014 117.676 35.6704C117.732 35.7373 117.76 35.8031 117.76 35.8678V35.8808C117.76 35.9066 117.748 36.0145 117.724 36.2044C117.705 36.3446 117.695 36.5161 117.695 36.7189C117.695 37.0403 117.756 37.3952 117.879 37.7835C118.002 38.1719 118.106 38.366 118.19 38.366C118.25 38.366 118.45 38.0381 118.789 37.3823C119.002 36.9659 119.155 36.679 119.248 36.5215L119.352 36.3273C119.501 36.0426 119.642 35.8462 119.776 35.7384C119.961 35.7621 120.054 35.8549 120.054 36.0167C120.054 36.0706 120.05 36.1159 120.041 36.1526C120.032 36.1893 120.028 36.2346 120.028 36.2885C120.028 36.6876 120.132 37.1061 120.339 37.5441C120.546 37.9799 120.694 38.1978 120.782 38.1978C120.847 38.1978 120.949 37.9691 121.09 37.5117C121.279 36.8904 121.454 36.4244 121.614 36.1138C121.776 35.8031 121.894 35.6186 121.97 35.5604C122.045 35.5021 122.13 35.473 122.225 35.473C122.279 35.473 122.325 35.4968 122.361 35.5442C122.4 35.5895 122.42 35.6391 122.42 35.6931C122.42 35.7729 122.408 35.8279 122.384 35.8581C122.116 36.2098 121.86 36.7588 121.614 37.5052C121.405 38.146 121.261 38.5483 121.183 38.7123C121.106 38.8762 121.041 38.9582 120.989 38.9582C120.728 38.9582 120.515 38.8633 120.349 38.6735C120.182 38.4814 119.962 37.9734 119.688 37.1493C119.656 37.0522 119.625 36.967 119.595 36.8936ZM128.49 36.8936C128.43 36.8958 128.284 37.1471 128.053 37.6476C127.863 38.0597 127.669 38.4275 127.471 38.7511C127.272 39.0726 127.127 39.2333 127.034 39.2333C126.766 39.2333 126.518 38.8363 126.289 38.0424C126.063 37.2464 125.95 36.6056 125.95 36.1202C125.95 35.9627 125.989 35.8322 126.066 35.7287C126.146 35.6251 126.24 35.569 126.348 35.5604C126.363 35.5582 126.39 35.5593 126.429 35.5636C126.467 35.5658 126.515 35.6014 126.571 35.6704C126.627 35.7373 126.655 35.8031 126.655 35.8678V35.8808C126.655 35.9066 126.643 36.0145 126.62 36.2044C126.6 36.3446 126.59 36.5161 126.59 36.7189C126.59 37.0403 126.652 37.3952 126.775 37.7835C126.898 38.1719 127.001 38.366 127.086 38.366C127.146 38.366 127.345 38.0381 127.684 37.3823C127.898 36.9659 128.051 36.679 128.144 36.5215L128.247 36.3273C128.396 36.0426 128.537 35.8462 128.671 35.7384C128.857 35.7621 128.949 35.8549 128.949 36.0167C128.949 36.0706 128.945 36.1159 128.937 36.1526C128.928 36.1893 128.924 36.2346 128.924 36.2885C128.924 36.6876 129.027 37.1061 129.234 37.5441C129.441 37.9799 129.589 38.1978 129.678 38.1978C129.742 38.1978 129.845 37.9691 129.985 37.5117C130.175 36.8904 130.35 36.4244 130.509 36.1138C130.671 35.8031 130.79 35.6186 130.865 35.5604C130.941 35.5021 131.026 35.473 131.121 35.473C131.175 35.473 131.22 35.4968 131.257 35.5442C131.296 35.5895 131.315 35.6391 131.315 35.6931C131.315 35.7729 131.303 35.8279 131.279 35.8581C131.012 36.2098 130.755 36.7588 130.509 37.5052C130.3 38.146 130.157 38.5483 130.079 38.7123C130.001 38.8762 129.936 38.9582 129.885 38.9582C129.624 38.9582 129.41 38.8633 129.244 38.6735C129.078 38.4814 128.858 37.9734 128.584 37.1493C128.551 37.0522 128.52 36.967 128.49 36.8936ZM133.012 34.7028C132.967 34.7028 132.932 34.6543 132.909 34.5572C132.9 34.527 132.888 34.4936 132.873 34.4569C132.815 34.3167 132.786 34.1948 132.786 34.0912C132.786 34.0049 132.836 33.9176 132.938 33.8291C133.041 33.7385 133.156 33.6932 133.281 33.6932C133.343 33.6932 133.413 33.718 133.491 33.7676C133.569 33.8151 133.608 33.8615 133.608 33.9068C133.608 33.978 133.581 34.0988 133.527 34.2692C133.475 34.4397 133.391 34.5551 133.274 34.6155C133.16 34.6737 133.073 34.7028 133.012 34.7028ZM132.588 38.3175C132.588 38.4814 132.611 38.6659 132.656 38.8709C132.665 38.9097 132.669 38.942 132.669 38.9679C132.669 39.0068 132.634 39.0564 132.562 39.1168C132.491 39.1794 132.416 39.2106 132.336 39.2106C132.127 39.2106 132.022 39.0186 132.022 38.6346C132.022 38.2377 132.104 37.6099 132.268 36.7513C132.324 36.4514 132.352 36.2669 132.352 36.1979C132.352 36.062 132.377 35.9466 132.426 35.8516C132.476 35.7546 132.546 35.706 132.637 35.706C132.747 35.706 132.833 35.733 132.896 35.7869C132.96 35.8387 132.993 35.8969 132.993 35.9617C132.993 36.0264 132.978 36.1116 132.947 36.2173C132.786 36.7868 132.685 37.1946 132.646 37.4405C132.608 37.6865 132.588 37.9788 132.588 38.3175ZM135.402 35.7707C135.624 35.7535 135.833 35.733 136.03 35.7093C136.224 35.6877 136.385 35.6769 136.515 35.6769C136.679 35.6769 136.782 35.692 136.826 35.7222C136.869 35.7524 136.89 35.8053 136.89 35.8808C136.89 36.0555 136.768 36.1504 136.525 36.1655C136.212 36.1849 135.924 36.2119 135.661 36.2464C135.397 36.281 135.255 36.3101 135.233 36.3338C135.214 36.3554 135.149 36.6121 135.039 37.104C134.929 37.5937 134.874 37.9119 134.874 38.0586C134.874 38.2959 134.906 38.4545 134.968 38.5343C135.031 38.612 135.125 38.6508 135.25 38.6508C135.435 38.6508 135.693 38.5117 136.023 38.2334C136.15 38.119 136.248 38.0618 136.318 38.0618C136.41 38.0618 136.457 38.1115 136.457 38.2107C136.457 38.366 136.307 38.5677 136.007 38.8158C135.709 39.0618 135.404 39.1847 135.091 39.1847C134.569 39.1847 134.308 38.8773 134.308 38.2625C134.308 38.0403 134.362 37.6962 134.47 37.2302C134.575 36.7664 134.628 36.4881 134.628 36.3953C134.628 36.3629 134.602 36.3467 134.551 36.3467L134.214 36.3759C133.938 36.3759 133.8 36.2658 133.8 36.0458C133.8 35.9207 133.864 35.8581 133.991 35.8581H134.657C134.703 35.8581 134.743 35.8376 134.777 35.7966C134.812 35.7556 134.862 35.6186 134.929 35.3856C134.996 35.1505 135.055 34.9186 135.107 34.6899C135.159 34.4634 135.26 34.3501 135.411 34.3501C135.504 34.3501 135.576 34.3825 135.628 34.4472C135.68 34.5119 135.706 34.5723 135.706 34.6284C135.706 34.6586 135.667 34.8129 135.589 35.0912L135.402 35.7707ZM137.921 38.0651C138.723 36.583 139.385 35.8419 139.904 35.8419C140.043 35.8419 140.155 35.9207 140.241 36.0782C140.327 36.2356 140.397 36.5851 140.451 37.1266C140.505 37.7026 140.627 38.119 140.817 38.3757C140.914 38.5073 140.963 38.6044 140.963 38.667C140.963 38.7231 140.93 38.7748 140.866 38.8223C140.801 38.8698 140.732 38.8935 140.658 38.8935C140.49 38.8935 140.341 38.7997 140.212 38.612C140.082 38.4221 139.999 38.0899 139.963 37.6153C139.926 37.1665 139.887 36.8731 139.846 36.7351C139.805 36.597 139.737 36.528 139.642 36.528C139.416 36.528 138.96 37.1202 138.274 38.3045C138.069 38.6584 137.918 38.8903 137.82 39.0003C137.723 39.1082 137.635 39.1621 137.555 39.1621C137.46 39.1621 137.38 39.134 137.316 39.078C137.251 39.0219 137.219 38.9528 137.219 38.8709C137.219 38.8104 137.236 38.6939 137.27 38.5214C137.536 37.1514 137.745 35.7966 137.898 34.4569C137.933 34.1441 137.988 33.9359 138.063 33.8324C138.141 33.7288 138.206 33.677 138.257 33.677C138.35 33.677 138.434 33.7148 138.51 33.7903C138.585 33.8658 138.623 33.9704 138.623 34.1042C138.623 34.5011 138.526 35.0459 138.332 35.7384C138.237 36.0814 138.137 36.5172 138.031 37.0457C137.925 37.5743 137.872 37.9011 137.872 38.0262C137.872 38.0521 137.884 38.0651 137.908 38.0651H137.921ZM142.682 39.1977C142.387 39.1977 142.143 39.0855 141.951 38.8611C141.759 38.6368 141.663 38.3596 141.663 38.0295C141.663 37.4729 141.85 36.9249 142.223 36.3856C142.598 35.8441 143.047 35.5733 143.569 35.5733C143.914 35.5733 144.194 35.706 144.407 35.9714C144.623 36.2367 144.731 36.5528 144.731 36.9195C144.731 37.4804 144.509 38.0004 144.064 38.4793C143.622 38.9582 143.161 39.1977 142.682 39.1977ZM142.233 37.9453C142.233 38.1632 142.278 38.3412 142.369 38.4793C142.461 38.6174 142.583 38.6864 142.734 38.6864C143.056 38.6864 143.378 38.5106 143.702 38.1589C144.025 37.8051 144.187 37.4125 144.187 36.981C144.187 36.7157 144.125 36.501 143.999 36.337C143.876 36.1709 143.71 36.0879 143.501 36.0879C143.154 36.0879 142.855 36.3014 142.605 36.7286C142.357 37.1536 142.233 37.5592 142.233 37.9453ZM147.968 37.6282C147.692 38.092 147.41 38.4512 147.12 38.7058C146.831 38.9604 146.563 39.0877 146.315 39.0877C146.172 39.0877 146.027 39.0046 145.878 38.8385C145.731 38.6724 145.658 38.4167 145.658 38.0716C145.658 37.7889 145.726 37.3726 145.862 36.8224C145.976 36.3629 146.033 36.0404 146.033 35.8549C146.096 35.7254 146.194 35.6607 146.328 35.6607C146.418 35.6607 146.49 35.6931 146.544 35.7578C146.598 35.8204 146.625 35.8862 146.625 35.9552C146.625 36.1062 146.572 36.3209 146.467 36.5992C146.266 37.1407 146.166 37.6056 146.166 37.9939C146.166 38.3477 146.248 38.5246 146.412 38.5246C146.621 38.5246 146.887 38.3466 147.211 37.9907C147.535 37.6347 147.812 37.1385 148.043 36.5021C148.133 36.2475 148.207 36.0825 148.263 36.007C148.321 35.9293 148.399 35.8905 148.496 35.8905C148.642 35.8905 148.716 35.9876 148.716 36.1817C148.716 36.2054 148.695 36.2842 148.654 36.4179C148.525 36.8904 148.46 37.337 148.46 37.7577C148.46 38.2625 148.543 38.5893 148.709 38.7382C148.796 38.818 148.839 38.8827 148.839 38.9323C148.839 38.9927 148.795 39.0478 148.706 39.0974C148.62 39.147 148.541 39.1718 148.47 39.1718C148.319 39.1718 148.197 39.0596 148.104 38.8353C148.011 38.6109 147.965 38.2797 147.965 37.8418V37.735C147.965 37.7005 147.966 37.6649 147.968 37.6282ZM151.245 35.7707C151.467 35.7535 151.676 35.733 151.872 35.7093C152.066 35.6877 152.228 35.6769 152.358 35.6769C152.522 35.6769 152.625 35.692 152.668 35.7222C152.712 35.7524 152.733 35.8053 152.733 35.8808C152.733 36.0555 152.611 36.1504 152.367 36.1655C152.055 36.1849 151.767 36.2119 151.503 36.2464C151.24 36.281 151.098 36.3101 151.076 36.3338C151.057 36.3554 150.992 36.6121 150.882 37.104C150.772 37.5937 150.717 37.9119 150.717 38.0586C150.717 38.2959 150.748 38.4545 150.811 38.5343C150.873 38.612 150.967 38.6508 151.092 38.6508C151.278 38.6508 151.536 38.5117 151.866 38.2334C151.993 38.119 152.091 38.0618 152.16 38.0618C152.253 38.0618 152.299 38.1115 152.299 38.2107C152.299 38.366 152.15 38.5677 151.85 38.8158C151.552 39.0618 151.247 39.1847 150.934 39.1847C150.412 39.1847 150.151 38.8773 150.151 38.2625C150.151 38.0403 150.205 37.6962 150.313 37.2302C150.418 36.7664 150.471 36.4881 150.471 36.3953C150.471 36.3629 150.445 36.3467 150.393 36.3467L150.057 36.3759C149.781 36.3759 149.643 36.2658 149.643 36.0458C149.643 35.9207 149.706 35.8581 149.834 35.8581H150.5C150.546 35.8581 150.585 35.8376 150.62 35.7966C150.655 35.7556 150.705 35.6186 150.772 35.3856C150.839 35.1505 150.898 34.9186 150.95 34.6899C151.002 34.4634 151.103 34.3501 151.254 34.3501C151.347 34.3501 151.419 34.3825 151.471 34.4472C151.523 34.5119 151.549 34.5723 151.549 34.6284C151.549 34.6586 151.51 34.8129 151.432 35.0912L151.245 35.7707ZM157.079 34.4634C157.713 34.3598 158.176 34.3081 158.467 34.3081C158.922 34.3081 159.286 34.4159 159.558 34.6317C159.829 34.8474 159.965 35.1181 159.965 35.4439C159.965 35.7697 159.821 36.0771 159.532 36.3662C159.245 36.6531 158.883 36.8785 158.448 37.0425C158.394 37.0641 158.367 37.0867 158.367 37.1105C158.367 37.1471 158.589 37.3381 159.033 37.6832C159.48 38.0262 159.89 38.3132 160.263 38.544C160.369 38.6087 160.422 38.6939 160.422 38.7997C160.422 38.8687 160.385 38.9377 160.312 39.0068C160.24 39.0736 160.173 39.1071 160.111 39.1071C159.984 39.1071 159.78 39.0014 159.499 38.79C159.221 38.5785 158.932 38.3455 158.632 38.091C157.983 37.5452 157.62 37.2701 157.545 37.2658C157.398 37.2615 157.294 37.241 157.234 37.2043C157.174 37.1676 157.143 37.1018 157.143 37.0069C157.143 36.9249 157.182 36.8537 157.26 36.7933C157.338 36.7308 157.429 36.6995 157.535 36.6995C157.572 36.6995 157.63 36.7049 157.71 36.7157C157.79 36.7286 157.849 36.7351 157.888 36.7351C158.06 36.7351 158.355 36.6067 158.771 36.35C159.19 36.0933 159.399 35.7912 159.399 35.4439C159.399 35.2605 159.305 35.103 159.117 34.9714C158.932 34.8398 158.695 34.774 158.405 34.774C158.19 34.774 157.974 34.7891 157.758 34.8193C157.543 34.8495 157.404 34.8754 157.344 34.897C157.286 34.9186 157.238 34.9747 157.202 35.0653C157.165 35.1537 157.104 35.4385 157.017 35.9196C156.931 36.4007 156.863 36.8548 156.813 37.282C156.766 37.7091 156.742 38.023 156.742 38.2236C156.742 38.379 156.753 38.5138 156.775 38.6281C156.794 38.7425 156.804 38.8342 156.804 38.9032C156.804 38.9679 156.769 39.0348 156.7 39.1038C156.633 39.1729 156.56 39.2074 156.48 39.2074C156.254 39.2074 156.14 39.024 156.14 38.6573C156.14 37.7922 156.292 36.6412 156.597 35.2044C156.612 35.1289 156.619 35.0847 156.619 35.0718C156.619 35.0588 156.612 35.0394 156.597 35.0135C156.51 34.8776 156.467 34.787 156.467 34.7417C156.467 34.6597 156.507 34.5885 156.587 34.5281C156.667 34.4677 156.739 34.4375 156.804 34.4375L157.079 34.4634ZM163.429 37.858C163.127 38.2636 162.828 38.5677 162.533 38.7705C162.237 38.9733 161.967 39.0747 161.721 39.0747C161.554 39.0747 161.411 39.0046 161.29 38.8644C161.169 38.7242 161.109 38.544 161.109 38.324C161.109 37.7566 161.362 37.146 161.869 36.4924C162.376 35.8365 162.88 35.5086 163.381 35.5086C163.562 35.5086 163.697 35.6122 163.785 35.8193C163.813 35.8883 163.857 35.9228 163.918 35.9228C164.09 35.9228 164.177 35.9897 164.177 36.1235C164.177 36.1903 164.166 36.282 164.144 36.3985C164.028 37.0349 163.97 37.4837 163.97 37.7447C163.97 38.2668 164.069 38.5796 164.267 38.6832C164.362 38.7349 164.41 38.7986 164.41 38.8741C164.41 38.941 164.363 39.0078 164.271 39.0747C164.178 39.1438 164.088 39.1783 164.002 39.1783C163.836 39.1783 163.699 39.0639 163.591 38.8353C163.483 38.6066 163.429 38.2808 163.429 37.858ZM163.232 36.0361C162.947 36.0361 162.616 36.3036 162.238 36.8386C161.861 37.3715 161.672 37.8137 161.672 38.1654C161.672 38.4135 161.754 38.5375 161.918 38.5375C162.155 38.5375 162.484 38.2981 162.905 37.8191C163.326 37.3402 163.536 36.9001 163.536 36.4988C163.536 36.1903 163.435 36.0361 163.232 36.0361ZM166.379 34.7028C166.333 34.7028 166.299 34.6543 166.275 34.5572C166.266 34.527 166.255 34.4936 166.24 34.4569C166.181 34.3167 166.152 34.1948 166.152 34.0912C166.152 34.0049 166.203 33.9176 166.304 33.8291C166.408 33.7385 166.522 33.6932 166.647 33.6932C166.71 33.6932 166.78 33.718 166.858 33.7676C166.935 33.8151 166.974 33.8615 166.974 33.9068C166.974 33.978 166.947 34.0988 166.893 34.2692C166.841 34.4397 166.757 34.5551 166.641 34.6155C166.526 34.6737 166.439 34.7028 166.379 34.7028ZM165.955 38.3175C165.955 38.4814 165.977 38.6659 166.023 38.8709C166.031 38.9097 166.036 38.942 166.036 38.9679C166.036 39.0068 166 39.0564 165.929 39.1168C165.858 39.1794 165.782 39.2106 165.702 39.2106C165.493 39.2106 165.388 39.0186 165.388 38.6346C165.388 38.2377 165.47 37.6099 165.634 36.7513C165.69 36.4514 165.719 36.2669 165.719 36.1979C165.719 36.062 165.743 35.9466 165.793 35.8516C165.843 35.7546 165.913 35.706 166.003 35.706C166.113 35.706 166.2 35.733 166.262 35.7869C166.327 35.8387 166.359 35.8969 166.359 35.9617C166.359 36.0264 166.344 36.1116 166.314 36.2173C166.152 36.7868 166.052 37.1946 166.013 37.4405C165.974 37.6865 165.955 37.9788 165.955 38.3175ZM169.655 36.5474C169.543 36.5474 169.42 36.6207 169.286 36.7674C169.154 36.9141 168.953 37.2431 168.681 37.7544C168.323 38.4405 168.091 38.8309 167.985 38.9259C167.882 39.0208 167.795 39.0682 167.726 39.0682C167.472 39.0682 167.344 38.9453 167.344 38.6993C167.344 38.5958 167.362 38.4491 167.396 38.2592C167.515 37.6077 167.574 36.9206 167.574 36.1979C167.574 36.1159 167.609 36.0253 167.678 35.9261C167.749 35.8247 167.816 35.774 167.878 35.774C167.991 35.774 168.07 35.8085 168.118 35.8775C168.165 35.9466 168.189 36.0857 168.189 36.295C168.189 36.5129 168.124 36.9616 167.995 37.6412C167.952 37.8655 167.93 38.0079 167.93 38.0683C167.93 38.1028 167.939 38.1201 167.956 38.1201C167.988 38.1201 168.138 37.8623 168.406 37.3467C168.676 36.8224 168.912 36.4535 169.115 36.24C169.317 36.0264 169.541 35.9196 169.784 35.9196C169.979 35.9196 170.136 36.008 170.257 36.1849C170.38 36.3619 170.469 36.6844 170.525 37.1525C170.586 37.6854 170.64 38.0176 170.687 38.1492C170.737 38.2787 170.815 38.3434 170.92 38.3434C170.987 38.3434 171.071 38.3196 171.173 38.2722C171.19 38.2636 171.203 38.2592 171.211 38.2592C171.304 38.2592 171.351 38.3132 171.351 38.421C171.351 38.516 171.287 38.6174 171.16 38.7252C171.032 38.8309 170.879 38.8838 170.7 38.8838C170.517 38.8838 170.374 38.8115 170.273 38.667C170.174 38.5203 170.095 38.1309 170.037 37.4988C169.976 36.8645 169.849 36.5474 169.655 36.5474Z" fill="#256E7F"/>
</svg>
